<svg xmlns="http://www.w3.org/2000/svg" xmlns:xlink="http://www.w3.org/1999/xlink" width="64.584" height="169.697" viewBox="0 0 64.584 169.697"><defs><filter id="a" x="0" y="31.817" width="64.584" height="137.879" filterUnits="userSpaceOnUse"><feOffset dy="3" input="SourceAlpha"/><feGaussianBlur stdDeviation="3" result="b"/><feFlood flood-color="#c1c1c1" flood-opacity="0.541"/><feComposite operator="in" in2="b"/><feComposite in="SourceGraphic"/></filter></defs><g transform="translate(-27.734 -39)"><g transform="translate(33.001 -94.808)"><g transform="translate(9.999 133.808)"><path d="M46.257-375.982c-1.836.678-10.638,3.86-19.559,7.077-17.767,6.417-16.686,5.988-16.686,6.7a.755.755,0,0,0,.24.592c.24.274,5.7,4.032,5.945,4.1.1.026,21.652-11.246,25.882-13.537a3.769,3.769,0,0,1,.618-.309c0,.026-5.036,3.8-11.2,8.39l-11.2,8.356.026,3.483c.017,3.294.026,3.5.18,3.672a.6.6,0,0,0,.386.18,18.331,18.331,0,0,0,2.728-1.673c1.381-.918,2.531-1.673,2.557-1.673s1.167.772,2.548,1.716c2.282,1.552,2.548,1.716,2.874,1.716a.747.747,0,0,0,.618-.24c.137-.129.935-1.373,1.776-2.763,1.278-2.128,9.986-16.488,14.807-24.424a20.22,20.22,0,0,0,1.338-2.4c-.017-.1-.111-.163-.283-.172C49.714-377.2,48.162-376.677,46.257-375.982Z" transform="translate(-9.999 377.192)" fill="#253858"/></g></g><g transform="matrix(1, 0, 0, 1, 27.73, 39)" filter="url(#a)"><path d="M48.307,77.317c-.152.3-.3.59-.592,1.162-14.373,22.466-8.07,34.536-.458,39.2s36.32,8.544,35.543-7.146-31.38-14.758-39.3-3.418-7.068,27.807-.854,37.128,27.546,9.3,33.23,3.175-1.85-14.36-18.55-12.961-23.933,20.331-17.632,31.62a11.293,11.293,0,0,0,11.15,7.067c.453-.03,5.657.109,7.887-1.686,1.577-1.632,1.935-2.878.847-4.751s-16.024-5.81-19.03,3.48c-.611,1.887-3.115,9.731.854,16.723s4.662,7.736,5.857,9.29" transform="translate(-27.73 -39)" fill="none" stroke="#a4a4a4" stroke-linecap="round" stroke-linejoin="bevel" stroke-width="1" stroke-dasharray="3 5"/></g></g></svg>