<svg xmlns="http://www.w3.org/2000/svg" viewBox="0 0 104.86 104.82"><defs><style>.cls-1{fill:#73afc0;}.cls-2{fill:#7abcd2;}.cls-3{fill:#040305;}</style></defs><title>Asset 24</title><g id="Layer_2" data-name="Layer 2"><g id="Layer_1-2" data-name="Layer 1"><path class="cls-1" d="M104.73,40.33,91.64,89.07a3.67,3.67,0,0,1-2.6,2.6l-48.75,13a3.67,3.67,0,0,1-3.55-1L1.08,68a3.67,3.67,0,0,1-.95-3.55L3.05,53.61,13.22,15.75a3.64,3.64,0,0,1,2.6-2.59L40.2,6.64,64.57.12l.1,0a3.67,3.67,0,0,1,3.43,1L97,30l6.78,6.78A3.67,3.67,0,0,1,104.73,40.33Z"/><path class="cls-2" d="M97,30A68.44,68.44,0,0,1,7.6,56.13C6,55.35,4.53,54.5,3.05,53.61L13.22,15.75a3.64,3.64,0,0,1,2.6-2.59L40.2,6.64,64.67.1a3.67,3.67,0,0,1,3.43,1Z"/><path class="cls-3" d="M52.43,23.31A21.46,21.46,0,0,1,61,25,22.32,22.32,0,0,1,72.74,36.77a22,22,0,0,1,0,17.17A22.23,22.23,0,0,1,61,65.67a22,22,0,0,1-17.17,0,22.54,22.54,0,0,1-7-4.73,22,22,0,0,1-4.71-7,22.41,22.41,0,0,1,0-17.17,21.87,21.87,0,0,1,4.71-7,22.39,22.39,0,0,1,7-4.74A21.47,21.47,0,0,1,52.43,23.31Zm0,2.41a19,19,0,0,0-7.65,1.54A19.58,19.58,0,0,0,34.33,37.7a19.8,19.8,0,0,0,0,15.31A19.58,19.58,0,0,0,44.78,63.45a19.77,19.77,0,0,0,15.3,0A19.61,19.61,0,0,0,70.52,53a19.8,19.8,0,0,0,0-15.31A19.61,19.61,0,0,0,60.08,27.26,19,19,0,0,0,52.43,25.72ZM58.07,49a4.17,4.17,0,0,0,3.17-4.18,5.19,5.19,0,0,0-.53-2.54A4,4,0,0,0,59,40.72a3.24,3.24,0,0,0-1.31-.35c-.5,0-1,0-1.61,0s-1.17,0-1.81.1-1.28.07-1.91.07-1.28,0-1.92-.07-1.24-.09-1.81-.1-1.11,0-1.61,0a3.29,3.29,0,0,0-1.31.35,3.9,3.9,0,0,0-1.66,1.54,5.33,5.33,0,0,0-.5,2.54A4.16,4.16,0,0,0,46.74,49l1.21.3c.37.07.83.14,1.38.2a15.72,15.72,0,0,0,1.94.1h2.21a15.93,15.93,0,0,0,1.92-.1c.57-.06,1.05-.13,1.46-.2S57.73,49.08,58.07,49Zm6-7.3a12.56,12.56,0,0,1-.36,3,6.47,6.47,0,0,1-1.3,2.59,7.11,7.11,0,0,1-2.65,1.91,13,13,0,0,1-4.3,1l1,.5a2.51,2.51,0,0,1,1.08,1.16,4.84,4.84,0,0,1,.33,1.61c.05.71.07,1.43.07,2.17s0,1.41,0,2a3.22,3.22,0,0,0,.08,1.14,2,2,0,0,0,.57.7q.39.3.63.45c.17.11.22.23.15.38s-.3.25-.7.28a3.52,3.52,0,0,1-.76-.1,3,3,0,0,1-.85-.35,2.41,2.41,0,0,1-.68-.63,1.61,1.61,0,0,1-.28-1V54.42a1.36,1.36,0,0,0-.32-1,1.67,1.67,0,0,0-.68-.4v5.43a3.42,3.42,0,0,0,.35,1.92,2.62,2.62,0,0,1,.27.43,1.21,1.21,0,0,1,.16.37q0,.15-.18.18a2.4,2.4,0,0,1-.76-.13,2.16,2.16,0,0,1-1.51-1.15A4.3,4.3,0,0,1,53,58.14V52.81H51.92v5.33a4.55,4.55,0,0,1-.42,1.92A2.09,2.09,0,0,1,50,61.21a2.3,2.3,0,0,1-.73.13q-.18,0-.18-.18a.67.67,0,0,1,.16-.37c.1-.16.2-.3.3-.43a4.42,4.42,0,0,0,.22-.71,4.72,4.72,0,0,0,.13-1.21V53a1.41,1.41,0,0,0-.65.4,1.36,1.36,0,0,0-.31,1v4.12a1.68,1.68,0,0,1-.27,1,2.55,2.55,0,0,1-.68.63,3.05,3.05,0,0,1-.86.35,3.37,3.37,0,0,1-.75.1c-.41,0-.64-.13-.71-.28s0-.27.15-.38a5.65,5.65,0,0,0,.63-.45,2,2,0,0,0,.58-.7,4.87,4.87,0,0,0,.08-1.34c0-.72,0-1.52,0-2.39a3.84,3.84,0,0,1-1.06.2,5.41,5.41,0,0,1-1.46-.1,4.23,4.23,0,0,1-2.06-.88,6.39,6.39,0,0,1-1.36-2,4.55,4.55,0,0,0-.78-1.08,8,8,0,0,0-.76-.68c-.21-.17-.38-.31-.5-.43a.2.2,0,0,1,0-.32.9.9,0,0,1,.83-.31,1.52,1.52,0,0,1,.63.15,3.09,3.09,0,0,1,1.2,1.06A8.81,8.81,0,0,0,43,52.05a4.35,4.35,0,0,0,.76.5,3.31,3.31,0,0,0,1,.36,4.08,4.08,0,0,0,1.21,0,3.18,3.18,0,0,0,1.31-.56,2.35,2.35,0,0,1,.48-1,3,3,0,0,1,.7-.6,6,6,0,0,1,.71-.36c.22-.08.39-.16.53-.22a15.12,15.12,0,0,1-4.53-.93,7.68,7.68,0,0,1-2.8-1.87,6.2,6.2,0,0,1-1.41-2.59,12.3,12.3,0,0,1-.37-3.07,8.11,8.11,0,0,1,.5-3,7.72,7.72,0,0,1,1.41-2.32,6.15,6.15,0,0,1-.28-2.54,9.33,9.33,0,0,1,.53-2.39,7.46,7.46,0,0,1,3.2.81,10.39,10.39,0,0,1,1.78,1.15,16.77,16.77,0,0,1,4.49-.6h.35a17.52,17.52,0,0,1,4.18.5,11,11,0,0,1,1.81-1.1,7.62,7.62,0,0,1,3.12-.76,8.49,8.49,0,0,1,.53,2.27A6.9,6.9,0,0,1,62,36.14a7.07,7.07,0,0,1,1.56,2.39A8.46,8.46,0,0,1,64.11,41.68ZM52.33,40.52h0Zm6.49,3.93a2,2,0,0,1-.38,1.21,1.13,1.13,0,0,1-.93.5,1.06,1.06,0,0,1-.9-.5,2.21,2.21,0,0,1,0-2.42,1.06,1.06,0,0,1,.9-.5,1.13,1.13,0,0,1,.93.5A2,2,0,0,1,58.82,44.45Zm-9.87,0a2,2,0,0,1-.37,1.21,1.16,1.16,0,0,1-.94.5,1.07,1.07,0,0,1-.9-.5,2.27,2.27,0,0,1,0-2.42,1.07,1.07,0,0,1,.9-.5,1.16,1.16,0,0,1,.94.5A2,2,0,0,1,49,44.45Z"/></g></g></svg>