<svg xmlns="http://www.w3.org/2000/svg" viewBox="0 0 103.27 106.12"><defs><style>.cls-1{fill:#789ccc;}.cls-2{fill:#81a4d1;}.cls-3{fill:#010101;}</style></defs><title>Asset 7</title><g id="Layer_2" data-name="Layer 2"><g id="Layer_1-2" data-name="Layer 1"><path class="cls-1" d="M102.05,71.5,64.47,105.19a3.67,3.67,0,0,1-3.59.76l-48-15.71a3.68,3.68,0,0,1-2.46-2.73L.08,38.12a3.69,3.69,0,0,1,1.14-3.49l8.39-7.52L38.88.88a3.67,3.67,0,0,1,3.5-.7l48,15.71a3.67,3.67,0,0,1,2.45,2.74l8.41,40,2,9.39A3.63,3.63,0,0,1,102.05,71.5Z"/><path class="cls-2" d="M101.22,58.62A68.41,68.41,0,0,1,12.05,31.71c-.89-1.51-1.68-3.05-2.44-4.6L38.88.88a3.67,3.67,0,0,1,3.5-.7l48,15.71a3.67,3.67,0,0,1,2.45,2.74Z"/><path class="cls-3" d="M51.64,23A22.05,22.05,0,1,0,73.66,45,22,22,0,0,0,51.64,23Zm0,41.75A19.7,19.7,0,1,1,71.31,45,19.69,19.69,0,0,1,51.64,64.7Z"/><path class="cls-3" d="M40.63,56h4.13V39.48H40.63V56ZM57.15,39.48a7.5,7.5,0,0,0-5.5,2.76V39.48H47.52V56h4.13V46.37a3.51,3.51,0,0,1,4.13-2.76c1.74.11,2.69,2.43,2.75,2.76V56l4.11,0V44.59A5.16,5.16,0,0,0,57.15,39.48ZM42.7,34A2.07,2.07,0,1,0,44.76,36,2.07,2.07,0,0,0,42.7,34Z"/></g></g></svg>