<svg xmlns="http://www.w3.org/2000/svg" viewBox="0 0 108.27 95.57"><defs><style>.cls-1{fill:#4fb79d;}.cls-2{fill:#56bea5;}.cls-3{fill:#334b5e;}.cls-4{fill:#fff;}.cls-5{fill:#adb3ba;}.cls-6{fill:#8bd7f8;}.cls-7{fill:#e6e9ed;}</style></defs><title>Asset 20</title><g id="Layer_2" data-name="Layer 2"><g id="Layer_1-2" data-name="Layer 1"><path class="cls-1" d="M107.75,50.5,81.8,93.79a3.67,3.67,0,0,1-3.21,1.78l-50.46-.82A3.71,3.71,0,0,1,25,92.86L.47,48.75a3.67,3.67,0,0,1,.06-3.68l5.79-9.66L26.47,1.79A3.68,3.68,0,0,1,29.58,0L80.14.83a3.68,3.68,0,0,1,3.15,1.86l19.86,35.75,4.66,8.39A3.67,3.67,0,0,1,107.75,50.5Z"/><path class="cls-2" d="M103.15,38.44A68.41,68.41,0,0,1,10,39.08c-1.3-1.18-2.51-2.41-3.69-3.67L26.47,1.79A3.68,3.68,0,0,1,29.58,0L80.14.83a3.68,3.68,0,0,1,3.15,1.86Z"/><path class="cls-3" d="M74.94,60H33.28a1.41,1.41,0,0,1-1.41-1.41V26.82a1.41,1.41,0,0,1,1.41-1.41H75a1.41,1.41,0,0,1,1.41,1.41V58.61A1.48,1.48,0,0,1,74.94,60Z"/><rect class="cls-4" x="33.51" y="32.67" width="41.24" height="24.8"/><circle class="cls-5" cx="72.87" cy="29.28" r="1.31"/><circle class="cls-5" cx="68.74" cy="29.28" r="1.31"/><circle class="cls-5" cx="64.67" cy="29.28" r="1.31"/><rect class="cls-6" x="36.46" y="35.07" width="8.61" height="8.61"/><rect class="cls-6" x="49.83" y="35.07" width="8.61" height="8.61"/><rect class="cls-6" x="63.19" y="35.07" width="8.61" height="8.61"/><rect class="cls-7" x="36.46" y="46.24" width="8.61" height="1.62"/><rect class="cls-7" x="49.83" y="46.24" width="8.61" height="1.62"/><rect class="cls-7" x="63.19" y="46.24" width="8.61" height="1.62"/><rect class="cls-7" x="36.46" y="49.69" width="8.61" height="1.62"/><rect class="cls-7" x="49.83" y="49.69" width="8.61" height="1.62"/><rect class="cls-7" x="63.19" y="49.69" width="8.61" height="1.62"/><rect class="cls-7" x="36.46" y="53.18" width="8.61" height="1.62"/><rect class="cls-7" x="49.83" y="53.18" width="8.61" height="1.62"/><rect class="cls-7" x="63.19" y="53.18" width="8.61" height="1.62"/></g></g></svg>