<svg xmlns="http://www.w3.org/2000/svg" viewBox="0 0 104.35 105.3"><defs><style>.cls-1{fill:#ea9622;}.cls-2{fill:#f8992f;}.cls-3{fill:#334b5e;}.cls-4{fill:#e6e9ed;}.cls-5{fill:#fdfeff;}.cls-6{fill:#656b79;}.cls-7{fill:#505666;}.cls-8{fill:#8bd7f8;}</style></defs><title>Asset 12</title><g id="Layer_2" data-name="Layer 2"><g id="Layer_1-2" data-name="Layer 1"><path class="cls-1" d="M103.23,69.23l-36.32,35a3.67,3.67,0,0,1-3.57.88L14.84,91.21a3.66,3.66,0,0,1-2.55-2.64L.11,39.6a3.67,3.67,0,0,1,1-3.53l8.11-7.82L37.45,1a3.65,3.65,0,0,1,3.49-.9l48.62,14A3.67,3.67,0,0,1,92,16.62l6.61,26.59,3.28,13.18,2.31,9.31A3.67,3.67,0,0,1,103.23,69.23Z"/><path class="cls-2" d="M101.93,56.39a68.42,68.42,0,0,1-90.1-23.64c-.94-1.47-1.79-3-2.6-4.5L37.45,1a3.65,3.65,0,0,1,3.49-.9l48.62,14A3.67,3.67,0,0,1,92,16.62l6.61,26.59Z"/><polygon class="cls-3" points="74.84 39.93 56.82 39.93 52.61 37.82 29.47 37.82 29.47 59.12 74.84 59.12 74.84 39.93"/><path class="cls-4" d="M29.47,59.12v.33a1.69,1.69,0,0,0,1.69,1.7h42a1.69,1.69,0,0,0,1.69-1.7v-.33Z"/><path class="cls-4" d="M56.82,39.93h18v-8.5a1.69,1.69,0,0,0-1.69-1.7H45.91a2.71,2.71,0,0,0-2.71,2.71H31.54a2.09,2.09,0,0,0-2.07,2.07v3.27H52.65Z"/><circle class="cls-4" cx="52.16" cy="48.81" r="12.38"/><circle class="cls-5" cx="52.16" cy="48.81" r="10.35"/><circle class="cls-6" cx="52.16" cy="48.81" r="8.88"/><circle class="cls-7" cx="52.16" cy="48.81" r="6.36"/><circle class="cls-8" cx="52.16" cy="48.81" r="3.35"/><path class="cls-8" d="M70.22,37.82H62.28a.58.58,0,0,1-.57-.56V32a.58.58,0,0,1,.57-.56h7.94a.57.57,0,0,1,.56.56v5.27A.57.57,0,0,1,70.22,37.82Z"/><path class="cls-3" d="M39.89,30.33H34.1a.89.89,0,0,0-.94.8v1.31h7.71V31.13A.93.93,0,0,0,39.89,30.33Z"/></g></g></svg>