<svg xmlns="http://www.w3.org/2000/svg" viewBox="0 0 1618 811"><defs><style>.cls-1{fill:#22b573;}.cls-2,.cls-3{fill:#64b564;}.cls-3{opacity:0.35;}</style></defs><title>PortfolioBg_V1</title><g id="Layer_4" data-name="Layer 4"><line class="cls-1" x1="683.12" y1="328.34" x2="756.23" y2="255.23"/><path class="cls-2" d="M841.12,377.84a7.5,7.5,0,0,1-5.3-12.8l73.11-73.11a7.5,7.5,0,0,1,10.61,10.61l-73.11,73.11A7.51,7.51,0,0,1,841.12,377.84Z" transform="translate(-158 -42)"/><line class="cls-1" x1="42.12" y1="312.34" x2="105.23" y2="249.23"/><path class="cls-2" d="M200.12,361.84a7.5,7.5,0,0,1-5.3-12.8l63.11-63.11a7.5,7.5,0,0,1,10.61,10.61l-63.11,63.11A7.51,7.51,0,0,1,200.12,361.84Z" transform="translate(-158 -42)"/><path class="cls-1" d="M916.12,589.34,947.5,557.5" transform="translate(-158 -42)"/><path class="cls-2" d="M916.12,596.84a7.5,7.5,0,0,1-5.34-12.76l31.38-31.84a7.5,7.5,0,1,1,10.68,10.52l-31.37,31.85A7.49,7.49,0,0,1,916.12,596.84Z" transform="translate(-158 -42)"/><path class="cls-1" d="M1085.73,375.11l-50.73-50" transform="translate(-158 -42)"/><path class="cls-2" d="M1085.73,382.61a7.47,7.47,0,0,1-5.26-2.16l-50.73-50a7.5,7.5,0,1,1,10.52-10.68l50.74,50a7.5,7.5,0,0,1-5.27,12.84Z" transform="translate(-158 -42)"/><path class="cls-1" d="M915.12,250.34,946.5,218.5" transform="translate(-158 -42)"/><path class="cls-2" d="M915.12,257.84a7.49,7.49,0,0,1-5.34-12.76l31.38-31.84a7.5,7.5,0,0,1,10.68,10.52l-31.37,31.85A7.49,7.49,0,0,1,915.12,257.84Z" transform="translate(-158 -42)"/><path class="cls-1" d="M915,295.77l-.33-44.7" transform="translate(-158 -42)"/><path class="cls-2" d="M915,303.27a7.5,7.5,0,0,1-7.5-7.44l-.33-44.7a7.5,7.5,0,0,1,7.44-7.56h.06a7.5,7.5,0,0,1,7.5,7.44l.33,44.71a7.5,7.5,0,0,1-7.45,7.55Z" transform="translate(-158 -42)"/><path class="cls-1" d="M929.73,234.11,874,179.19" transform="translate(-158 -42)"/><path class="cls-2" d="M929.73,241.61a7.47,7.47,0,0,1-5.26-2.16l-55.73-54.91a7.5,7.5,0,0,1,10.52-10.69L935,228.77a7.5,7.5,0,0,1-5.27,12.84Z" transform="translate(-158 -42)"/><path class="cls-1" d="M1150.82,248l-67-66" transform="translate(-158 -42)"/><path class="cls-2" d="M1150.82,255.5a7.47,7.47,0,0,1-5.27-2.16l-67-66a7.5,7.5,0,1,1,10.53-10.68l67,66a7.5,7.5,0,0,1-5.26,12.84Z" transform="translate(-158 -42)"/><path class="cls-1" d="M916.12,448.34q25.3-25.66,50.59-51.34" transform="translate(-158 -42)"/><path class="cls-2" d="M916.12,455.84a7.5,7.5,0,0,1-5.34-12.76l50.59-51.34a7.5,7.5,0,0,1,10.69,10.52l-50.59,51.35A7.49,7.49,0,0,1,916.12,455.84Z" transform="translate(-158 -42)"/><path class="cls-1" d="M599.12,344.34,634.93,308" transform="translate(-158 -42)"/><path class="cls-2" d="M599.12,351.84a7.49,7.49,0,0,1-5.34-12.76l35.81-36.34a7.5,7.5,0,0,1,10.69,10.52l-35.81,36.35A7.49,7.49,0,0,1,599.12,351.84Z" transform="translate(-158 -42)"/><path class="cls-1" d="M591,517.77l-.33-44.7" transform="translate(-158 -42)"/><path class="cls-2" d="M591,525.27a7.5,7.5,0,0,1-7.5-7.44l-.33-44.7a7.5,7.5,0,0,1,15-.12l.33,44.71a7.5,7.5,0,0,1-7.45,7.55Z" transform="translate(-158 -42)"/><path class="cls-1" d="M1035,324.77l-.33-44.7" transform="translate(-158 -42)"/><path class="cls-2" d="M1035,332.27a7.5,7.5,0,0,1-7.5-7.44l-.33-44.7a7.5,7.5,0,0,1,7.44-7.56h.06a7.5,7.5,0,0,1,7.5,7.44v.33l.33,44.38a7.5,7.5,0,0,1-7.45,7.55Z" transform="translate(-158 -42)"/><path class="cls-1" d="M841.12,424.34,872.5,392.5" transform="translate(-158 -42)"/><path class="cls-2" d="M841.12,431.84a7.5,7.5,0,0,1-5.34-12.76l31.38-31.84a7.5,7.5,0,1,1,10.68,10.52l-31.37,31.85A7.49,7.49,0,0,1,841.12,431.84Z" transform="translate(-158 -42)"/><path class="cls-1" d="M938,424.77q-.33-43.54-.65-87.1" transform="translate(-158 -42)"/><path class="cls-2" d="M938,432.27a7.5,7.5,0,0,1-7.5-7.44l-.65-87.11a7.5,7.5,0,0,1,7.45-7.55h.05a7.5,7.5,0,0,1,7.5,7.44l.65,87.11a7.5,7.5,0,0,1-7.45,7.55Z" transform="translate(-158 -42)"/><path class="cls-1" d="M1034.73,308.11l-31.84-31.38" transform="translate(-158 -42)"/><path class="cls-2" d="M1034.73,315.61a7.47,7.47,0,0,1-5.26-2.16l-31.84-31.37a7.5,7.5,0,0,1,10.52-10.69L1040,302.77a7.5,7.5,0,0,1-5.27,12.84Z" transform="translate(-158 -42)"/><path class="cls-1" d="M365.12,152.34,417.69,99" transform="translate(-158 -42)"/><path class="cls-2" d="M365.12,159.84a7.49,7.49,0,0,1-5.34-12.76l52.56-53.34A7.5,7.5,0,0,1,423,104.26l-52.56,53.35A7.49,7.49,0,0,1,365.12,159.84Z" transform="translate(-158 -42)"/><path class="cls-1" d="M241.78,637.78l70.38-.52" transform="translate(-158 -42)"/><path class="cls-2" d="M241.77,645.28a7.5,7.5,0,0,1-.05-15l70.39-.52h.05a7.5,7.5,0,0,1,.06,15l-70.39.52Z" transform="translate(-158 -42)"/><path class="cls-1" d="M893.12,197.34,924.5,165.5" transform="translate(-158 -42)"/><path class="cls-2" d="M893.12,204.84a7.49,7.49,0,0,1-5.34-12.76l31.38-31.84a7.5,7.5,0,0,1,10.68,10.52l-31.37,31.85A7.49,7.49,0,0,1,893.12,204.84Z" transform="translate(-158 -42)"/><path class="cls-1" d="M1650.12,242.34l31.38-31.84" transform="translate(-158 -42)"/><path class="cls-2" d="M1650.12,249.84a7.49,7.49,0,0,1-5.34-12.76l31.38-31.84a7.5,7.5,0,1,1,10.68,10.52l-31.37,31.85A7.49,7.49,0,0,1,1650.12,249.84Z" transform="translate(-158 -42)"/><path class="cls-1" d="M1604.46,243.59l44.7-.33" transform="translate(-158 -42)"/><path class="cls-2" d="M1604.46,251.09a7.5,7.5,0,0,1,0-15l44.7-.33h.05a7.5,7.5,0,0,1,.06,15l-44.7.33Z" transform="translate(-158 -42)"/></g><g id="Layer_1" data-name="Layer 1"><path class="cls-2" d="M960.5,850a7.5,7.5,0,0,1-7.5-7.5v-142a7.5,7.5,0,0,1,2.28-5.39L1005,645.39V449.5a7.5,7.5,0,0,1,15,0v62.71l59.71-59.59a7.65,7.65,0,0,1-.24-1.92l.53-164.22a7.5,7.5,0,0,1,7.5-7.48h0a7.5,7.5,0,0,1,7.48,7.52l-.11,32.8,48.19-48.1a8.47,8.47,0,0,1-.08-1.13v-67.6a8.26,8.26,0,0,1,2.29-5.59l40.92-40.72a7.5,7.5,0,1,1,10.58,10.64L1158,205.41v50.92l34.2-34.14a7.5,7.5,0,1,1,10.6,10.62l-108,107.77-.32,97.26,21.69-21.65a7.5,7.5,0,0,1,10.6,10.62L1020,533.41v97l19.7-19.69a7.5,7.5,0,0,1,10.6,10.6L968,703.61V827.4l69-69V713.87a7.5,7.5,0,1,1,15,0v29.52l57-57v-48l-55.79-55.6a7.5,7.5,0,1,1,10.58-10.62l45.21,45v-.73a7.5,7.5,0,0,1,15,0v54.89L1181.45,614c0-.1.07-.19.11-.29L1104.2,536.3a7.5,7.5,0,0,1,10.6-10.6L1128.15,539l.15-.15,18.93-18.72a7.5,7.5,0,1,1,10.54,10.66l-18.92,18.72-.1.1L1183,593.89V412.09l-48.83-49.31a7.5,7.5,0,1,1,10.66-10.56L1183,390.77V352.5a7.48,7.48,0,0,1,2.33-5.43,7.11,7.11,0,0,1,1-1.17L1225,307.38V255.5a8.05,8.05,0,0,1,.08-1.11,7.5,7.5,0,0,1,2.21-5.49L1267,209.39V162.5a7.5,7.5,0,0,1,7.5-7.5h0a7.5,7.5,0,0,1,7.5,7.5v49.59a7.47,7.47,0,0,1-1.91,5,7.62,7.62,0,0,1-1.3,1.73L1240,257.41v50.68a7,7,0,0,1-.1,1.21,7.48,7.48,0,0,1-2.11,6.52L1198,355.41v161l48.28-48.28a7.47,7.47,0,0,1-.28-2V364.5a7.5,7.5,0,0,1,15,0v43.71l84-83.86V238.53l-28.8-28.72a7.5,7.5,0,0,1,10.6-10.62l3.6,3.6,43.47-43.37-9.66-9.6a7.5,7.5,0,0,1-2.21-5.51V128.39a6.47,6.47,0,0,1-.9-.76l-42.9-42.82a7.5,7.5,0,1,1,10.6-10.62l33.2,33.14V91.5a8.05,8.05,0,0,1,.08-1.11,7.5,7.5,0,0,1,2.21-5.49l40.92-40.72a7.5,7.5,0,1,1,10.58,10.64L1377,93.41v48l7.49,7.45,34.71-34.64a7.5,7.5,0,0,1,10.6,10.62L1341,213.38,1357.7,230a7.51,7.51,0,0,1,2.2,5.25,8.41,8.41,0,0,1,.1,1.24v21.75l28.21-28.07a7.5,7.5,0,1,1,10.58,10.64L1360,279.41v30l10.2-10.19a7.5,7.5,0,0,1,10.6,10.62l-34.64,34.57,50.35.31,38.7-38.51a7.5,7.5,0,1,1,10.58,10.64l-28.14,28,27.56.17L1492,298.32V230.83a6.26,6.26,0,0,1-.67-.6L1447.06,186a7.5,7.5,0,0,1,10.61-10.61L1492,209.69V197.5a7.5,7.5,0,0,1,15,0v27.72l50.22-50.11a7.62,7.62,0,0,1-.09-1.18V125.5a7.5,7.5,0,0,1,15,0v34.74l9.07-9.05a7.5,7.5,0,1,1,10.6,10.62l-13.71,13.68,44.12.49,39-38.8a7.5,7.5,0,1,1,10.58,10.64l-40.92,40.71a7.51,7.51,0,0,1-5.32,2.19,7.25,7.25,0,0,1-2.13.28l-60.2-.68L1507,246.41v36.94l15.2-15.16a7.5,7.5,0,0,1,10.6,10.62l-3.43,3.42,25.18-.09,42.78-42.78a7.5,7.5,0,1,1,10.6,10.61l-32.09,32.09,18.63-.07h0a7.5,7.5,0,0,1,0,15l-80.26.3-59.51,59.35a7.61,7.61,0,0,1-6.3,3.36l-48.52-.29a7.3,7.3,0,0,1-.81,0l-67.9-.41-68.35,68.24a7.44,7.44,0,0,1-1.88,1.36V453.4l10.7-10.7a7.5,7.5,0,0,1,10.6,10.6L1198,537.61v71.28l.11.11h21.29l30.8-30.8a7.5,7.5,0,0,1,10.6,10.6L1240.61,609h59.79l58-58-27.19-27.2a7.5,7.5,0,0,1,10.6-10.6l27.2,27.19,14.7-14.69a7.5,7.5,0,0,1,10.6,10.6l-84.5,84.5a6.15,6.15,0,0,1-.53.49,7.49,7.49,0,0,1-5.77,2.71H1192.61l-94.06,94.06h31.79l29.86-29.85a7.5,7.5,0,0,1,10.6,10.6L1151.56,718h36.27a7.5,7.5,0,0,1,1.34,0H1227V662.5a7.5,7.5,0,0,1,15,0v13.75l28.21-28.07a7.5,7.5,0,0,1,10.58,10.64L1242,697.42V718h36.39l17.71-17.7.2-.2,64.4-64.4a7.5,7.5,0,0,1,10.6,10.6L1319.61,698h67.79l39.73-39.73.14-.14,5.73-5.73V535.5a7.5,7.5,0,0,1,15,0v35.73l59.42-60.2L1456.2,459.8a7.5,7.5,0,1,1,10.6-10.6l43.2,43.19V408.5a7.5,7.5,0,0,1,15,0v22.73l35-34.88V337.5a7.5,7.5,0,0,1,15,0v43.89l.21-.2a7.5,7.5,0,1,1,10.58,10.62l-11.5,11.47a7.55,7.55,0,0,1-3.63,3.62L1525,452.41v57.87c0,.24,0,.49,0,.73a7.49,7.49,0,0,1-2.14,5.76l-13.3,13.47,41.31,42a7.5,7.5,0,0,1-10.7,10.52L1499,540.92l-51,51.66V637.4l21.7-21.7a7.5,7.5,0,0,1,10.6,10.6L1450.61,656H1586.4l49.6-49.61V507.5a7.5,7.5,0,0,1,15,0v4.73l35.54-35.44a7.07,7.07,0,0,1-.07-1.13l.45-57.32a8.13,8.13,0,0,1-.84-.73l-40.72-40.92A7.5,7.5,0,0,1,1656,366.11l34.46,34.63,30-29.92v-.12l.14-57.72a7.5,7.5,0,0,1,7.5-7.48h0a7.49,7.49,0,0,1,7.48,7.51l-.11,42.82,20.71-20.64a7.5,7.5,0,1,1,10.58,10.62L1702,410.42l-.41,51.37,7.62-7.6a7.5,7.5,0,0,1,10.6,10.62l-68.8,68.6v58l41.2-41.19a7.5,7.5,0,0,1,10.6,10.6l-108,108a7.44,7.44,0,0,1-5.3,2.2h-60.89l20.19,20.2a7.5,7.5,0,0,1-10.6,10.6L1507.39,671h-71.78l-39.81,39.8A7.45,7.45,0,0,1,1390,713l-.5,0h-84.89l-17.81,17.8a7.41,7.41,0,0,1-5.42,2.2l-74.75,0,19.17,19.17a7.5,7.5,0,0,1-10.61,10.6L1185.42,733l-101.88,0L973.8,842.8a26.84,26.84,0,0,0-13.3,7.2Z" transform="translate(-158 -42)"/><path class="cls-3" d="M1773.79,345.81a7.5,7.5,0,1,0-10.58-10.62l-20.71,20.64.1-39.09a13,13,0,1,0-15,3.07l-.12,50.89v.12l-30,29.92L1663,366.11a7.5,7.5,0,0,0-10.64,10.58l40.72,40.92a8.13,8.13,0,0,0,.84.73l-.45,57.32a7.07,7.07,0,0,0,.07,1.13L1658,512.23V507.5a7.5,7.5,0,0,0-15,0v98.89L1593.4,656H1457.61l29.69-29.7a7.5,7.5,0,0,0-10.6-10.6L1455,637.4V594.89a14.51,14.51,0,0,0,6.58-9l44.42-45,41.15,41.84a7.5,7.5,0,0,0,10.7-10.52l-41.31-42,13.3-13.47A7.49,7.49,0,0,0,1532,511c0-.24,0-.49,0-.73V452.41l45.66-45.51a7.55,7.55,0,0,0,3.63-3.62l11.5-11.47a7.5,7.5,0,1,0-10.58-10.62l-.21.2V337.5a7.5,7.5,0,0,0-15,0v58.85l-35,34.88V408.5a7.5,7.5,0,0,0-15,0v83.89l-36.45-36.45a13,13,0,1,0-14.51,6.71L1514.42,511l-58.74,59.5c-.22-.15-.45-.28-.68-.42V535.5a7.5,7.5,0,0,0-15,0v34.61a14.47,14.47,0,0,0,0,24.78V652.4l-5.73,5.73-.14.14L1394.4,698h-67.79l47-47a13,13,0,1,0-12.8-8.41L1303.3,700.1l-.2.2L1285.39,718H1249V697.42l38.79-38.6a7.5,7.5,0,0,0-10.58-10.64L1249,676.25V662.5a7.5,7.5,0,0,0-15,0V718h-37.83a7.5,7.5,0,0,0-1.34,0h-36.27l19.24-19.24a7.5,7.5,0,0,0-10.6-10.6l-29.86,29.85h-31.79L1199.61,624H1310.5a7.49,7.49,0,0,0,5.77-2.71,6.15,6.15,0,0,0,.53-.49l84.5-84.5a7.5,7.5,0,0,0-10.6-10.6L1376,540.39l-27.2-27.19a7.5,7.5,0,0,0-10.6,10.6l27.19,27.2-58,58h-59.79l20.19-20.2a7.5,7.5,0,0,0-10.6-10.6L1226.4,609h-21.29l-.11-.11V537.61l84.3-84.31a7.5,7.5,0,0,0-10.6-10.6L1268,453.4V428.89a7.44,7.44,0,0,0,1.88-1.36l68.35-68.24,67.9.41a7.3,7.3,0,0,0,.81,0l48.52.29a7.61,7.61,0,0,0,6.3-3.36l59.51-59.35,80.26-.3a7.5,7.5,0,0,0,0-15h0l-18.63.07,30-30,42.39-.31a7.48,7.48,0,0,0,5.55-2.54,8,8,0,0,0,.7-.61l31.37-31.85a7.5,7.5,0,1,0-10.68-10.52l-30.1,30.54-41.65.31a10.12,10.12,0,0,0-6.08,2.27l-42.78,42.78-25.18.09,3.43-3.42a7.5,7.5,0,0,0-10.6-10.62L1514,283.35V246.41l56.22-56.09,60.2.68a7.25,7.25,0,0,0,2.13-.28,7.51,7.51,0,0,0,5.32-2.19l40.92-40.71a7.5,7.5,0,1,0-10.58-10.64l-39,38.8-44.12-.49,13.71-13.68a7.5,7.5,0,1,0-10.6-10.62l-9.07,9.05V125.5a7.5,7.5,0,0,0-15,0v48.43a7.62,7.62,0,0,0,.09,1.18L1514,225.22V197.5a7.5,7.5,0,0,0-15,0v12.19l-34.33-34.33A7.5,7.5,0,0,0,1454.06,186l44.27,44.26a6.26,6.26,0,0,0,.67.6v67.49L1452.21,345l-27.56-.17,24-23.83.39,0a13,13,0,1,0-12.43-9.2l-33.06,32.89-50.35-.31,34.64-34.57a7.5,7.5,0,0,0-10.6-10.62L1367,309.38v-30l38.79-38.59a7.5,7.5,0,1,0-10.58-10.64L1367,258.25V236.5a8.41,8.41,0,0,0-.1-1.24,7.51,7.51,0,0,0-2.2-5.25L1348,213.38l88.78-88.57a7.5,7.5,0,0,0-10.6-10.62l-34.71,34.64-7.49-7.45v-48l38.79-38.59a7.5,7.5,0,1,0-10.58-10.64L1371.29,84.9a7.5,7.5,0,0,0-2.21,5.49,8.05,8.05,0,0,0-.08,1.11v15.83l-33.2-33.14a7.5,7.5,0,1,0-10.6,10.62l42.9,42.82a6.47,6.47,0,0,0,.9.76v15.92a7.5,7.5,0,0,0,2.21,5.51l9.66,9.6-43.47,43.37-3.6-3.6a7.5,7.5,0,0,0-10.6,10.62l28.8,28.72v85.82l-84,83.86V364.5a7.5,7.5,0,0,0-15,0V466.1a7.47,7.47,0,0,0,.28,2L1205,516.4v-161L1237.59,323l.41,0a13,13,0,0,0,9-22.37V257.41l38.79-38.59a7.62,7.62,0,0,0,1.3-1.73,7.47,7.47,0,0,0,1.91-5V162.5a7.5,7.5,0,0,0-15,0v46.89l-39.71,39.51a7.5,7.5,0,0,0-2.21,5.49,8.05,8.05,0,0,0-.08,1.11v43a13,13,0,0,0-7,11.53,13.16,13.16,0,0,0,.56,3.79l-32.27,32.11a7.11,7.11,0,0,0-1,1.17,7.48,7.48,0,0,0-2.33,5.43v38.27l-38.17-38.55a7.5,7.5,0,1,0-10.66,10.56L1190,412.09v181.8l-44.25-44.24.1-.1,18.92-18.72a7.5,7.5,0,1,0-10.54-10.66l-18.93,18.72-.15.15L1121.8,525.7a7.5,7.5,0,0,0-10.6,10.6l77.36,77.36c0,.1-.08.19-.11.29L1131,671.39V616.5a7.5,7.5,0,0,0-15,0v.73l-45.21-45a7.5,7.5,0,1,0-10.58,10.62l55.79,55.6v48l-57,57V716.3a13,13,0,1,0-15,3.7v38.39l-63,63V700.5a7.49,7.49,0,0,0-.42-2.47l76.72-76.73a7.5,7.5,0,0,0-10.6-10.6L1027,630.39v-97l106.8-106.6a7.5,7.5,0,0,0-10.6-10.62l-21.69,21.65.32-97.26,108-107.77a7.5,7.5,0,1,0-10.6-10.62L1165,256.33V205.41L1199.62,171A13,13,0,1,0,1186,158a12.83,12.83,0,0,0,.83,4.53l-34.54,34.37a8.26,8.26,0,0,0-2.29,5.59v29.26l-54.9-54.09a7.5,7.5,0,1,0-10.53,10.68L1150,252.81v17.28a8.47,8.47,0,0,0,.08,1.13l-48.19,48.1.11-32.8a7.5,7.5,0,0,0-7.48-7.52h0a7.5,7.5,0,0,0-7.5,7.48l-.24,74.2-38.3-37.74-.3-39.83a13,13,0,1,0-15,.93l0,7.14-19.07-18.79a7.5,7.5,0,0,0-10.52,10.69l29.75,29.31.1,13.44c0,.26,0,.53,0,.78a7.45,7.45,0,0,0,2.22,4.85l50.73,50,.22.2-.22,69.05a7.65,7.65,0,0,0,.24,1.92L1027,512.21V449.5a7.5,7.5,0,0,0-15,0v62a13,13,0,0,0,0,23.06V645.39L970.5,686.9,929,645.39V594.05l29.84-30.29a7.5,7.5,0,1,0-10.68-10.52L929,572.68V458.23A13,13,0,0,0,934,448v0l44.06-44.72a7.5,7.5,0,0,0-10.69-10.52l-16,16.25-.52-70.38a7.5,7.5,0,0,0-7.5-7.44h-.05a7.5,7.5,0,0,0-7.45,7.55l.63,85.38-11.38,11.56A13,13,0,0,0,914,458.94v53.27l-59.71-59.59a7.65,7.65,0,0,0,.24-1.92l-.07-22.12,29.38-29.82a7.5,7.5,0,1,0-10.68-10.52l-18.77,19-.1-32.49,71.25-71.25a7.66,7.66,0,0,0,1.7-2.64,7.5,7.5,0,0,0,1.24-4.18l-.31-41.84,29.67-30.12a7.5,7.5,0,0,0-10.68-10.52l-10.8,11-27-26.58,26.46-26.86a7.5,7.5,0,0,0-10.68-10.52L898.7,188.09l-13.44-13.24a7.5,7.5,0,0,0-10.52,10.69l51.09,50.34-10.05,10.2a7.57,7.57,0,0,0-1.15,1.53,7.38,7.38,0,0,0-1.48,4.52l.31,42.27-59.24,59.24L854,286.48a7.5,7.5,0,0,0-7.5-7.48h0a7.5,7.5,0,0,0-7.48,7.52l.11,32.8-48.19-48.1a8.47,8.47,0,0,0,.08-1.13v-67.6a8.26,8.26,0,0,0-2.29-5.59L750,158.36c0-.12,0-.24,0-.36a13,13,0,1,0-13,13,12.84,12.84,0,0,0,3.84-.58l35.16,35v50.92l-34.2-34.14a7.5,7.5,0,0,0-10.6,10.62l108,107.77.32,97.26L817.8,416.19a7.5,7.5,0,1,0-10.6,10.62L914,533.41v97L894.3,610.7a7.5,7.5,0,0,0-10.6,10.6L960.42,698a7.49,7.49,0,0,0-.42,2.47V821.4l-63-63V713.87a7.5,7.5,0,1,0-15,0v29.52l-57-57v-48l55.79-55.6a7.5,7.5,0,0,0-10.58-10.62l-45.21,45v-.73a7.5,7.5,0,0,0-15,0v54.89l-53.13-53.13a16.49,16.49,0,0,0-.18-8.84L829.8,536.3a7.5,7.5,0,0,0-10.6-10.6L805.85,539l-.15-.15-18.93-18.72a7.5,7.5,0,0,0-10.54,10.66l18.92,18.72.1.1L751,593.89V412.09l48.83-49.31a7.5,7.5,0,0,0-10.66-10.56L751,390.77V352.5a7.48,7.48,0,0,0-2.33-5.43,7.11,7.11,0,0,0-1-1.17L709,307.38V255.5a8.05,8.05,0,0,0-.08-1.11,7.5,7.5,0,0,0-2.21-5.49L667,209.39V162.5a7.5,7.5,0,0,0-15,0v49.59a7.47,7.47,0,0,0,1.91,5,7.62,7.62,0,0,0,1.3,1.73L694,257.41v50.68a7,7,0,0,0,.1,1.21,7.48,7.48,0,0,0,2.11,6.52L736,355.41v161l-48.28-48.28a7.47,7.47,0,0,0,.28-2V364.5a7.5,7.5,0,0,0-15,0v43.71l-60.14-60,32-32.51A13,13,0,1,0,630.45,309l-28.2,28.63L589,324.35V238.53l28.8-28.72a7.5,7.5,0,1,0-10.6-10.62l-3.6,3.6-43.47-43.37,9.66-9.6a7.5,7.5,0,0,0,2.21-5.51V128.39a6.47,6.47,0,0,0,.9-.76l42.9-42.82a7.5,7.5,0,1,0-10.6-10.62L572,107.33V91.5a8.05,8.05,0,0,0-.08-1.11,7.5,7.5,0,0,0-2.21-5.49L528.79,44.18a7.5,7.5,0,1,0-10.58,10.64L557,93.41v48l-7.49,7.45L514.8,114.19a7.5,7.5,0,0,0-10.6,10.62L593,213.38,576.3,230a7.51,7.51,0,0,0-2.2,5.25,8.41,8.41,0,0,0-.1,1.24v21.75l-28.21-28.07a7.5,7.5,0,1,0-10.58,10.64L574,279.41v30l-10.2-10.19a7.5,7.5,0,1,0-10.6,10.62l34.64,34.57-50.35.31-38.7-38.51a7.5,7.5,0,0,0-10.58,10.64l28.14,28-27.56.17L442,298.32V230.83a6.26,6.26,0,0,0,.67-.6L486.94,186a7.5,7.5,0,0,0-10.61-10.61L442,209.69V197.5a7.5,7.5,0,0,0-15,0v27.72l-50.22-50.11a7.62,7.62,0,0,0,.09-1.18V158.2L429,105.26a7.5,7.5,0,0,0-10.69-10.52l-41.47,42.08V125.5a7.93,7.93,0,0,0-.07-1,13,13,0,1,0-14.93,3.42v32.3l-9.07-9.05a7.5,7.5,0,1,0-10.6,10.62l13.71,13.68-44.12.49-39-38.8a7.5,7.5,0,1,0-10.58,10.64l40.92,40.71a7.51,7.51,0,0,0,5.32,2.19,7.25,7.25,0,0,0,2.13.28l60.2-.68L427,246.41v36.94l-15.2-15.16a7.5,7.5,0,1,0-10.6,10.62l3.43,3.42-25.18-.09-42.78-42.78A7.5,7.5,0,0,0,326.07,250l32.09,32.09L339.53,282h0a7.5,7.5,0,0,0,0,15l80.26.3,59.51,59.35a7.61,7.61,0,0,0,6.3,3.36l48.52-.29a7.51,7.51,0,0,0,.82,0l67.89-.41,68.35,68.24a7.44,7.44,0,0,0,1.88,1.36V453.4l-10.7-10.7a7.5,7.5,0,1,0-10.6,10.6L736,537.61v61A16.3,16.3,0,0,0,725.46,609H714.6l-30.8-30.8a7.5,7.5,0,0,0-10.6,10.6L693.39,609H633.6l-58-58,27.19-27.2a8.42,8.42,0,0,0,1.34-1.81,10.13,10.13,0,0,0,.86-7l-.81-38.91a13,13,0,1,0-15,1l.29,38.89L565,540.39,550.3,525.7a7.5,7.5,0,0,0-10.6,10.6l84.5,84.5a6.15,6.15,0,0,0,.53.49A7.49,7.49,0,0,0,630.5,624h97.38a17,17,0,0,0,1.52,1.79,16.39,16.39,0,0,0,17.48,3.7l88.57,88.57H803.66L773.8,688.2a7.5,7.5,0,0,0-10.6,10.6L782.44,718H746.17a7.5,7.5,0,0,0-1.34,0H707V662.5a7.5,7.5,0,0,0-15,0v13.75l-28.21-28.07a7.5,7.5,0,0,0-10.58,10.64L692,697.42V718H661.23A12.94,12.94,0,0,0,651,713l-.38,0L637.9,700.3l-.2-.2-64.4-64.4a7.5,7.5,0,0,0-10.6,10.6L614.39,698H546.6l-39.73-39.73-.14-.14L501,652.4V535.5a7.5,7.5,0,0,0-15,0v35.73L426.58,511,477.8,459.8a7.5,7.5,0,0,0-10.6-10.6L424,492.39V408.5a7.5,7.5,0,0,0-15,0v22.73l-32.06-32c0-.42.06-.84.06-1.27a12.94,12.94,0,0,0-3-8.3V337.5a7.5,7.5,0,0,0-15,0v43.89l-.2-.2a7.5,7.5,0,1,0-10.59,10.62l3.16,3.16A13,13,0,0,0,364,411a12.91,12.91,0,0,0,3.07-.38L409,452.41v57.87c0,.24,0,.49,0,.73a7.49,7.49,0,0,0,2.14,5.76l13.3,13.47-41.31,42a7.5,7.5,0,0,0,10.7,10.52L435,540.92l51,51.66V637.4l-21.7-21.7a7.5,7.5,0,0,0-10.6,10.6L483.39,656H347.6L298,606.39V507.5a7.5,7.5,0,0,0-15,0v4.73l-35.54-35.44a7.07,7.07,0,0,0,.07-1.13l-.45-57.32a8.13,8.13,0,0,0,.84-.73l40.72-40.92A7.5,7.5,0,1,0,278,366.11l-34.45,34.63-30-29.92v-.12l0-12.13,61-61a7.5,7.5,0,0,0-10.61-10.61l-50.48,50.48,0-20.63a13,13,0,1,0-15,4.37l.09,34.68-20.7-20.64a7.5,7.5,0,1,0-10.59,10.62L232,410.42l.41,51.37-7.62-7.6a7.5,7.5,0,1,0-10.6,10.62l68.8,68.6v58l-41-41c0-.12,0-.24,0-.37a13,13,0,1,0-9.18,12.43l68.45,68.45-53.55.4a7.5,7.5,0,0,0,.05,15h.06l68.33-.51,23,23a7.44,7.44,0,0,0,5.3,2.2h60.89L385.2,691.2a7.5,7.5,0,0,0,10.6,10.6L426.61,671h71.78l39.81,39.8A7.46,7.46,0,0,0,544,713l.49,0h84.89l9.18,9.18A13,13,0,0,0,661.94,733l65.43,0L708.2,752.19a7.5,7.5,0,0,0,10.61,10.6L748.58,733l101.88,0L952.84,835.45A12.72,12.72,0,0,0,952,840a16.87,16.87,0,0,0,33,0,11.43,11.43,0,0,0-.07-1.32l105.61-105.62,101.88,0,29.77,29.76a7.5,7.5,0,0,0,10.61-10.6L1213.63,733l74.75,0a7.41,7.41,0,0,0,5.42-2.2l17.81-17.8h84.89l.5,0a7.45,7.45,0,0,0,5.8-2.18l39.81-39.8h71.78l24.45,24.44A12.78,12.78,0,0,0,1538,700a13,13,0,1,0,13.64-13l-16-16h60.89a7.44,7.44,0,0,0,5.3-2.2l108-108a7.5,7.5,0,0,0-10.6-10.6L1658,591.39v-58l68.8-68.6a7.5,7.5,0,0,0-10.6-10.62l-7.62,7.6.41-51.37Z" transform="translate(-158 -42)"/><path class="cls-2" d="M966.5,850a7.5,7.5,0,0,0,7.5-7.5v-142a7.5,7.5,0,0,0-2.28-5.39L922,645.39V449.5a7.5,7.5,0,0,0-15,0v62.71l-59.71-59.59a7.65,7.65,0,0,0,.24-1.92L847,286.48a7.5,7.5,0,0,0-7.5-7.48h0a7.5,7.5,0,0,0-7.48,7.52l.11,32.8-48.19-48.1a8.47,8.47,0,0,0,.08-1.13v-67.6a8.26,8.26,0,0,0-2.29-5.59l-40.92-40.72a7.5,7.5,0,1,0-10.58,10.64L769,205.41v50.92l-34.2-34.14a7.5,7.5,0,0,0-10.6,10.62l108,107.77.32,97.26L810.8,416.19a7.5,7.5,0,1,0-10.6,10.62L907,533.41v97L887.3,610.7a7.5,7.5,0,0,0-10.6,10.6L959,703.61V827.4l-69-69V713.87a7.5,7.5,0,1,0-15,0v29.52l-57-57v-48l55.79-55.6a7.5,7.5,0,0,0-10.58-10.62l-45.21,45v-.73a7.5,7.5,0,0,0-15,0v54.89L745.55,614c0-.1-.07-.19-.11-.29L822.8,536.3a7.5,7.5,0,0,0-10.6-10.6L798.85,539l-.15-.15-18.93-18.72a7.5,7.5,0,0,0-10.54,10.66l18.92,18.72.1.1L744,593.89V412.09l48.83-49.31a7.5,7.5,0,0,0-10.66-10.56L744,390.77V352.5a7.48,7.48,0,0,0-2.33-5.43,7.11,7.11,0,0,0-1-1.17L702,307.38V255.5a8.05,8.05,0,0,0-.08-1.11,7.5,7.5,0,0,0-2.21-5.49L660,209.39V162.5a7.5,7.5,0,0,0-7.5-7.5h0a7.5,7.5,0,0,0-7.5,7.5v49.59a7.47,7.47,0,0,0,1.91,5,7.62,7.62,0,0,0,1.3,1.73L687,257.41v50.68a7,7,0,0,0,.1,1.21,7.48,7.48,0,0,0,2.11,6.52L729,355.41v161l-48.28-48.28a7.47,7.47,0,0,0,.28-2V364.5a7.5,7.5,0,0,0-15,0v43.71l-84-83.86V238.53l28.8-28.72a7.5,7.5,0,1,0-10.6-10.62l-3.6,3.6-43.47-43.37,9.66-9.6a7.5,7.5,0,0,0,2.21-5.51V128.39a6.47,6.47,0,0,0,.9-.76l42.9-42.82a7.5,7.5,0,1,0-10.6-10.62L565,107.33V91.5a8.05,8.05,0,0,0-.08-1.11,7.5,7.5,0,0,0-2.21-5.49L521.79,44.18a7.5,7.5,0,1,0-10.58,10.64L550,93.41v48l-7.49,7.45L507.8,114.19a7.5,7.5,0,0,0-10.6,10.62L586,213.38,569.3,230a7.51,7.51,0,0,0-2.2,5.25,8.41,8.41,0,0,0-.1,1.24v21.75l-28.21-28.07a7.5,7.5,0,1,0-10.58,10.64L567,279.41v30l-10.2-10.19a7.5,7.5,0,1,0-10.6,10.62l34.64,34.57-50.35.31-38.7-38.51a7.5,7.5,0,0,0-10.58,10.64l28.14,28-27.56.17L435,298.32V230.83a6.26,6.26,0,0,0,.67-.6L479.94,186a7.5,7.5,0,0,0-10.61-10.61L435,209.69V197.5a7.5,7.5,0,0,0-15,0v27.72l-50.22-50.11a7.62,7.62,0,0,0,.09-1.18V125.5a7.5,7.5,0,0,0-15,0v34.74l-9.07-9.05a7.5,7.5,0,1,0-10.6,10.62l13.71,13.68-44.12.49-39-38.8a7.5,7.5,0,0,0-10.58,10.64l40.92,40.71a7.51,7.51,0,0,0,5.32,2.19,7.25,7.25,0,0,0,2.13.28l60.2-.68L420,246.41v36.94l-15.2-15.16a7.5,7.5,0,1,0-10.6,10.62l3.43,3.42-25.18-.09-42.78-42.78A7.5,7.5,0,0,0,319.07,250l32.09,32.09L332.53,282h0a7.5,7.5,0,0,0,0,15l80.26.3,59.51,59.35a7.61,7.61,0,0,0,6.3,3.36l48.52-.29a7.51,7.51,0,0,0,.82,0l67.89-.41,68.35,68.24a7.44,7.44,0,0,0,1.88,1.36V453.4l-10.7-10.7a7.5,7.5,0,1,0-10.6,10.6L729,537.61v71.28l-.11.11H707.6l-30.8-30.8a7.5,7.5,0,0,0-10.6,10.6L686.39,609H626.6l-58-58,27.19-27.2a7.5,7.5,0,0,0-10.6-10.6L558,540.39,543.3,525.7a7.5,7.5,0,0,0-10.6,10.6l84.5,84.5a6.15,6.15,0,0,0,.53.49A7.49,7.49,0,0,0,623.5,624H734.39l94.06,94.06H796.66L766.8,688.2a7.5,7.5,0,0,0-10.6,10.6L775.44,718H739.17a7.5,7.5,0,0,0-1.34,0H700V662.5a7.5,7.5,0,0,0-15,0v13.75l-28.21-28.07a7.5,7.5,0,0,0-10.58,10.64L685,697.42V718H648.61L630.9,700.3l-.2-.2-64.4-64.4a7.5,7.5,0,0,0-10.6,10.6L607.39,698H539.6l-39.73-39.73-.14-.14L494,652.4V535.5a7.5,7.5,0,0,0-15,0v35.73L419.58,511,470.8,459.8a7.5,7.5,0,0,0-10.6-10.6L417,492.39V408.5a7.5,7.5,0,0,0-15,0v22.73l-35-34.88V337.5a7.5,7.5,0,0,0-15,0v43.89l-.2-.2a7.5,7.5,0,1,0-10.59,10.62l11.5,11.47a7.55,7.55,0,0,0,3.63,3.62L402,452.41v57.87c0,.24,0,.49,0,.73a7.49,7.49,0,0,0,2.14,5.76l13.3,13.47-41.31,42a7.5,7.5,0,0,0,10.7,10.52L428,540.92l51,51.66V637.4l-21.7-21.7a7.5,7.5,0,0,0-10.6,10.6L476.39,656H340.6L291,606.39V507.5a7.5,7.5,0,0,0-15,0v4.73l-35.54-35.44a7.07,7.07,0,0,0,.07-1.13l-.45-57.32a8.13,8.13,0,0,0,.84-.73l40.72-40.92A7.5,7.5,0,1,0,271,366.11l-34.45,34.63-30-29.92v-.12L206.39,313a7.5,7.5,0,0,0-7.5-7.48h0a7.49,7.49,0,0,0-7.48,7.51l.11,42.82-20.7-20.64a7.5,7.5,0,1,0-10.59,10.62L225,410.42l.41,51.37-7.62-7.6a7.5,7.5,0,1,0-10.6,10.62l68.8,68.6v58L234.8,550.2a7.5,7.5,0,0,0-10.6,10.6l108,108a7.44,7.44,0,0,0,5.3,2.2h60.89L378.2,691.2a7.5,7.5,0,0,0,10.6,10.6L419.61,671h71.78l39.81,39.8A7.46,7.46,0,0,0,537,713l.49,0h84.89l17.81,17.8a7.41,7.41,0,0,0,5.42,2.2l74.75,0L701.2,752.19a7.5,7.5,0,0,0,10.61,10.6L741.58,733l101.88,0L953.2,842.8a26.84,26.84,0,0,1,13.3,7.2Z" transform="translate(-158 -42)"/><circle class="cls-2" cx="758" cy="406" r="13"/><circle class="cls-2" cx="574" cy="116" r="13"/><circle class="cls-2" cx="433" cy="424" r="13"/><circle class="cls-2" cx="201" cy="356" r="13"/><circle class="cls-2" cx="66" cy="508" r="13"/><circle class="cls-2" cx="40" cy="267" r="13"/><circle class="cls-2" cx="479" cy="261" r="13"/><circle class="cls-2" cx="886" cy="666" r="13"/><circle class="cls-2" cx="877" cy="231" r="13"/><circle class="cls-2" cx="1286" cy="266" r="13"/><circle class="cls-2" cx="1210" cy="596" r="13"/><circle class="cls-2" cx="802" cy="798" r="13"/><circle class="cls-2" cx="809" cy="798" r="13"/><circle class="cls-2" cx="1284.5" cy="540.5" r="14.5"/><circle class="cls-2" cx="578" cy="572.19" r="16.4"/><circle class="cls-2" cx="1306" cy="408" r="13"/><circle class="cls-2" cx="1570" cy="266" r="13"/><circle class="cls-2" cx="1036" cy="116" r="13"/><circle class="cls-2" cx="1075" cy="268" r="13"/><circle class="cls-2" cx="488" cy="684" r="13"/><circle class="cls-2" cx="855" cy="481" r="13"/><circle class="cls-2" cx="204" cy="74" r="13"/><circle class="cls-2" cx="1388" cy="658" r="13"/></g></svg>