<svg xmlns="http://www.w3.org/2000/svg" viewBox="0 0 1618 806.02"><defs><style>.cls-1{fill:#22b573}.cls-2{fill:#64b564}</style></defs><g id="Layer_4" data-name="Layer 4"><path class="cls-1" d="M683.12 328.34l73.11-73.11"/><path class="cls-2" d="M841.12 377.84a7.5 7.5 0 0 1-5.3-12.8l73.11-73.11a7.5 7.5 0 0 1 10.61 10.61l-73.11 73.11a7.51 7.51 0 0 1-5.31 2.19z" transform="translate(-158 -42)"/><path class="cls-1" d="M42.12 312.34l63.11-63.11"/><path class="cls-2" d="M200.12 361.84a7.5 7.5 0 0 1-5.3-12.8l63.11-63.11a7.5 7.5 0 0 1 10.61 10.61l-63.11 63.11a7.51 7.51 0 0 1-5.31 2.19z" transform="translate(-158 -42)"/><path class="cls-1" d="M916.12 589.34l31.38-31.84" transform="translate(-158 -42)"/><path class="cls-2" d="M916.12 596.84a7.5 7.5 0 0 1-5.34-12.76l31.38-31.84a7.5 7.5 0 1 1 10.68 10.52l-31.37 31.85a7.49 7.49 0 0 1-5.35 2.23z" transform="translate(-158 -42)"/><path class="cls-1" d="M1085.73 375.11l-50.73-50" transform="translate(-158 -42)"/><path class="cls-2" d="M1085.73 382.61a7.47 7.47 0 0 1-5.26-2.16l-50.73-50a7.5 7.5 0 1 1 10.52-10.68l50.74 50a7.5 7.5 0 0 1-5.27 12.84z" transform="translate(-158 -42)"/><path class="cls-1" d="M915.12 250.34l31.38-31.84" transform="translate(-158 -42)"/><path class="cls-2" d="M915.12 257.84a7.49 7.49 0 0 1-5.34-12.76l31.38-31.84a7.5 7.5 0 0 1 10.68 10.52l-31.37 31.85a7.49 7.49 0 0 1-5.35 2.23z" transform="translate(-158 -42)"/><path class="cls-1" d="M915 295.77l-.33-44.7" transform="translate(-158 -42)"/><path class="cls-2" d="M915 303.27a7.5 7.5 0 0 1-7.5-7.44l-.33-44.7a7.5 7.5 0 0 1 7.44-7.56h.06a7.5 7.5 0 0 1 7.5 7.44l.33 44.71a7.5 7.5 0 0 1-7.45 7.55z" transform="translate(-158 -42)"/><path class="cls-1" d="M929.73 234.11L874 179.19" transform="translate(-158 -42)"/><path class="cls-2" d="M929.73 241.61a7.47 7.47 0 0 1-5.26-2.16l-55.73-54.91a7.5 7.5 0 0 1 10.52-10.69L935 228.77a7.5 7.5 0 0 1-5.27 12.84z" transform="translate(-158 -42)"/><path class="cls-1" d="M1150.82 248l-67-66" transform="translate(-158 -42)"/><path class="cls-2" d="M1150.82 255.5a7.47 7.47 0 0 1-5.27-2.16l-67-66a7.5 7.5 0 1 1 10.53-10.68l67 66a7.5 7.5 0 0 1-5.26 12.84z" transform="translate(-158 -42)"/><path class="cls-1" d="M916.12 448.34q25.3-25.66 50.59-51.34" transform="translate(-158 -42)"/><path class="cls-2" d="M916.12 455.84a7.5 7.5 0 0 1-5.34-12.76l50.59-51.34a7.5 7.5 0 0 1 10.69 10.52l-50.59 51.35a7.49 7.49 0 0 1-5.35 2.23z" transform="translate(-158 -42)"/><path class="cls-1" d="M599.12 344.34L634.93 308" transform="translate(-158 -42)"/><path class="cls-2" d="M599.12 351.84a7.49 7.49 0 0 1-5.34-12.76l35.81-36.34a7.5 7.5 0 0 1 10.69 10.52l-35.81 36.35a7.49 7.49 0 0 1-5.35 2.23z" transform="translate(-158 -42)"/><path class="cls-1" d="M591 517.77l-.33-44.7" transform="translate(-158 -42)"/><path class="cls-2" d="M591 525.27a7.5 7.5 0 0 1-7.5-7.44l-.33-44.7a7.5 7.5 0 0 1 15-.12l.33 44.71a7.5 7.5 0 0 1-7.45 7.55z" transform="translate(-158 -42)"/><path class="cls-1" d="M1035 324.77l-.33-44.7" transform="translate(-158 -42)"/><path class="cls-2" d="M1035 332.27a7.5 7.5 0 0 1-7.5-7.44l-.33-44.7a7.5 7.5 0 0 1 7.44-7.56h.06a7.5 7.5 0 0 1 7.5 7.44v.33l.33 44.38a7.5 7.5 0 0 1-7.45 7.55z" transform="translate(-158 -42)"/><path class="cls-1" d="M841.12 424.34l31.38-31.84" transform="translate(-158 -42)"/><path class="cls-2" d="M841.12 431.84a7.5 7.5 0 0 1-5.34-12.76l31.38-31.84a7.5 7.5 0 1 1 10.68 10.52l-31.37 31.85a7.49 7.49 0 0 1-5.35 2.23z" transform="translate(-158 -42)"/><path class="cls-1" d="M938 424.77q-.33-43.54-.65-87.1" transform="translate(-158 -42)"/><path class="cls-2" d="M938 432.27a7.5 7.5 0 0 1-7.5-7.44l-.65-87.11a7.5 7.5 0 0 1 7.45-7.55h.05a7.5 7.5 0 0 1 7.5 7.44l.65 87.11a7.5 7.5 0 0 1-7.45 7.55z" transform="translate(-158 -42)"/><path class="cls-1" d="M1034.73 308.11l-31.84-31.38" transform="translate(-158 -42)"/><path class="cls-2" d="M1034.73 315.61a7.47 7.47 0 0 1-5.26-2.16l-31.84-31.37a7.5 7.5 0 0 1 10.52-10.69l31.85 31.38a7.5 7.5 0 0 1-5.27 12.84z" transform="translate(-158 -42)"/><path class="cls-1" d="M365.12 152.34L417.69 99" transform="translate(-158 -42)"/><path class="cls-2" d="M365.12 159.84a7.49 7.49 0 0 1-5.34-12.76l52.56-53.34A7.5 7.5 0 0 1 423 104.26l-52.56 53.35a7.49 7.49 0 0 1-5.32 2.23z" transform="translate(-158 -42)"/><path class="cls-1" d="M241.78 637.78l70.38-.52" transform="translate(-158 -42)"/><path class="cls-2" d="M241.77 645.28a7.5 7.5 0 0 1-.05-15l70.39-.52h.05a7.5 7.5 0 0 1 .06 15l-70.39.52z" transform="translate(-158 -42)"/><path class="cls-1" d="M893.12 197.34l31.38-31.84" transform="translate(-158 -42)"/><path class="cls-2" d="M893.12 204.84a7.49 7.49 0 0 1-5.34-12.76l31.38-31.84a7.5 7.5 0 0 1 10.68 10.52l-31.37 31.85a7.49 7.49 0 0 1-5.35 2.23z" transform="translate(-158 -42)"/><path class="cls-1" d="M1650.12 242.34l31.38-31.84" transform="translate(-158 -42)"/><path class="cls-2" d="M1650.12 249.84a7.49 7.49 0 0 1-5.34-12.76l31.38-31.84a7.5 7.5 0 1 1 10.68 10.52l-31.37 31.85a7.49 7.49 0 0 1-5.35 2.23z" transform="translate(-158 -42)"/><path class="cls-1" d="M1604.46 243.59l44.7-.33" transform="translate(-158 -42)"/><path class="cls-2" d="M1604.46 251.09a7.5 7.5 0 0 1 0-15l44.7-.33h.05a7.5 7.5 0 0 1 .06 15l-44.7.33z" transform="translate(-158 -42)"/></g><g id="Layer_1" data-name="Layer 1"><path class="cls-2" d="M1766.79 345.81a7.5 7.5 0 1 0-10.58-10.62l-20.71 20.64.11-42.82a7.49 7.49 0 0 0-7.48-7.51 7.5 7.5 0 0 0-7.5 7.48l-.14 57.72v.12l-30 29.92-34.49-34.63a7.5 7.5 0 0 0-10.64 10.58l40.72 40.92a8.13 8.13 0 0 0 .84.73l-.45 57.32a7.07 7.07 0 0 0 .07 1.13L1651 512.23v-4.73a7.5 7.5 0 0 0-15 0v98.89L1586.4 656h-135.79l29.69-29.7a7.5 7.5 0 0 0-10.6-10.6l-21.7 21.7v-44.82l51-51.66 41.15 41.84a7.5 7.5 0 0 0 10.7-10.52l-41.31-42 13.3-13.47A7.49 7.49 0 0 0 1525 511v-58.59l45.66-45.51a7.55 7.55 0 0 0 3.63-3.62l11.5-11.47a7.5 7.5 0 1 0-10.58-10.62l-.21.2V337.5a7.5 7.5 0 0 0-15 0v58.85l-35 34.88V408.5a7.5 7.5 0 0 0-15 0v83.89l-43.2-43.19a7.5 7.5 0 1 0-10.6 10.6l51.22 51.2-59.42 60.23V535.5a7.5 7.5 0 0 0-15 0v116.9l-5.73 5.73-.14.14L1387.4 698h-67.79l51.69-51.7a7.5 7.5 0 0 0-10.6-10.6l-64.4 64.4-.2.2-17.71 17.7H1242v-20.58l38.79-38.6a7.5 7.5 0 0 0-10.58-10.64L1242 676.25V662.5a7.5 7.5 0 0 0-15 0V718h-37.83a7.5 7.5 0 0 0-1.34 0h-36.27l19.24-19.24a7.5 7.5 0 0 0-10.6-10.6l-29.86 29.85h-31.79l94.06-94.01h110.89a7.49 7.49 0 0 0 5.77-2.71 6.15 6.15 0 0 0 .53-.49l84.5-84.5a7.5 7.5 0 0 0-10.6-10.6l-14.7 14.69-27.2-27.19a7.5 7.5 0 0 0-10.6 10.6l27.19 27.2-58 58h-59.79l20.19-20.2a7.5 7.5 0 0 0-10.6-10.6L1219.4 609h-21.29l-.11-.11v-71.28l84.3-84.31a7.5 7.5 0 0 0-10.6-10.6l-10.7 10.7v-24.51a7.44 7.44 0 0 0 1.88-1.36l68.35-68.24 67.9.41a7.3 7.3 0 0 0 .81 0l48.52.29a7.61 7.61 0 0 0 6.3-3.36l59.51-59.35 80.26-.3a7.5 7.5 0 0 0 0-15l-18.63.07 32.03-32.05a7.5 7.5 0 1 0-10.6-10.61l-42.78 42.78-25.18.09 3.43-3.42a7.5 7.5 0 0 0-10.6-10.62l-15.2 15.13v-36.94l56.22-56.09 60.2.68a7.25 7.25 0 0 0 2.13-.28 7.51 7.51 0 0 0 5.32-2.19l40.92-40.71a7.5 7.5 0 1 0-10.58-10.64l-39 38.8-44.12-.49 13.71-13.68a7.5 7.5 0 1 0-10.6-10.62l-9.07 9.05V125.5a7.5 7.5 0 0 0-15 0v48.43a7.62 7.62 0 0 0 .09 1.18L1507 225.22V197.5a7.5 7.5 0 0 0-15 0v12.19l-34.33-34.33a7.5 7.5 0 0 0-10.61 10.64l44.27 44.26a6.26 6.26 0 0 0 .67.6v67.49L1445.21 345l-27.56-.17 28.14-28a7.5 7.5 0 1 0-10.58-10.64l-38.7 38.51-50.35-.31 34.64-34.57a7.5 7.5 0 0 0-10.6-10.62l-10.2 10.18v-30l38.79-38.59a7.5 7.5 0 1 0-10.58-10.64l-28.21 28.1V236.5a8.41 8.41 0 0 0-.1-1.24 7.51 7.51 0 0 0-2.2-5.25l-16.7-16.63 88.78-88.57a7.5 7.5 0 0 0-10.6-10.62l-34.71 34.64-7.49-7.45v-48l38.79-38.59a7.5 7.5 0 1 0-10.58-10.64l-40.9 40.75a7.5 7.5 0 0 0-2.21 5.49 8.05 8.05 0 0 0-.08 1.11v15.83l-33.2-33.14a7.5 7.5 0 1 0-10.6 10.62l42.9 42.82a6.47 6.47 0 0 0 .9.76v15.92a7.5 7.5 0 0 0 2.21 5.51l9.66 9.6-43.47 43.37-3.6-3.6a7.5 7.5 0 0 0-10.6 10.62l28.8 28.72v85.82l-84 83.86V364.5a7.5 7.5 0 0 0-15 0v101.6a7.47 7.47 0 0 0 .28 2L1198 516.4v-161l39.79-39.59a7.48 7.48 0 0 0 2.11-6.52 7 7 0 0 0 .1-1.21v-50.67l38.79-38.59a7.62 7.62 0 0 0 1.3-1.73 7.47 7.47 0 0 0 1.91-5V162.5a7.5 7.5 0 0 0-15 0v46.89l-39.71 39.51a7.5 7.5 0 0 0-2.21 5.49 8.05 8.05 0 0 0-.08 1.11v51.88l-38.71 38.52a7.11 7.11 0 0 0-1 1.17 7.48 7.48 0 0 0-2.33 5.43v38.27l-38.17-38.55a7.5 7.5 0 1 0-10.66 10.56l48.87 49.31v181.8l-44.25-44.24.1-.1 18.92-18.72a7.5 7.5 0 1 0-10.54-10.66l-18.93 18.72-.15.15-13.35-13.34a7.5 7.5 0 0 0-10.6 10.6l77.36 77.36c0 .1-.08.19-.11.29L1124 671.39V616.5a7.5 7.5 0 0 0-15 0v.73l-45.21-45a7.5 7.5 0 1 0-10.58 10.62l55.79 55.6v48l-57 57v-29.58a7.5 7.5 0 1 0-15 0v44.52l-69 69V703.61l82.3-82.31a7.5 7.5 0 0 0-10.6-10.6l-19.7 19.69v-97l106.8-106.6a7.5 7.5 0 0 0-10.6-10.62l-21.69 21.65.32-97.26 108-107.77a7.5 7.5 0 1 0-10.6-10.62L1158 256.33v-50.92l38.79-38.59a7.5 7.5 0 1 0-10.58-10.64l-40.92 40.72a8.26 8.26 0 0 0-2.29 5.59v67.6a8.47 8.47 0 0 0 .08 1.13l-48.19 48.1.11-32.8a7.5 7.5 0 0 0-7.48-7.52 7.5 7.5 0 0 0-7.5 7.48l-.53 164.22a7.65 7.65 0 0 0 .24 1.92L1020 512.21V449.5a7.5 7.5 0 0 0-15 0v195.89l-49.72 49.72a7.5 7.5 0 0 0-2.28 5.39v142.52h12.7a4.61 4.61 0 0 1 .91 0h6.94a1.34 1.34 0 0 0 .21-.2l109.74-109.74h101.88l29.77 29.76a7.5 7.5 0 0 0 10.61-10.6L1206.63 733h74.75a7.41 7.41 0 0 0 5.42-2.2l17.81-17.8H1390a7.45 7.45 0 0 0 5.8-2.18l39.81-39.8h71.78l30.81 30.8a7.5 7.5 0 0 0 10.6-10.6L1528.61 671h60.89a7.44 7.44 0 0 0 5.3-2.2l108-108a7.5 7.5 0 0 0-10.6-10.6l-41.2 41.19v-58l68.8-68.6a7.5 7.5 0 0 0-10.6-10.62l-7.62 7.6.41-51.37z" transform="translate(-158 -42)"/><circle class="cls-2" cx="758" cy="406" r="13"/><circle class="cls-2" cx="574" cy="116" r="13"/><circle class="cls-2" cx="433" cy="424" r="13"/><circle class="cls-2" cx="201" cy="356" r="13"/><circle class="cls-2" cx="66" cy="508" r="13"/><circle class="cls-2" cx="40" cy="267" r="13"/><circle class="cls-2" cx="479" cy="261" r="13"/><circle class="cls-2" cx="886" cy="666" r="13"/><circle class="cls-2" cx="877" cy="231" r="13"/><circle class="cls-2" cx="1286" cy="266" r="13"/><circle class="cls-2" cx="1210" cy="596" r="13"/><circle class="cls-2" cx="1284.5" cy="540.5" r="14.5"/><circle class="cls-2" cx="578" cy="572.19" r="16.4"/><circle class="cls-2" cx="1306" cy="408" r="13"/><circle class="cls-2" cx="1570" cy="266" r="13"/><circle class="cls-2" cx="1036" cy="116" r="13"/><circle class="cls-2" cx="1075" cy="268" r="13"/><circle class="cls-2" cx="488" cy="684" r="13"/><circle class="cls-2" cx="855" cy="481" r="13"/><circle class="cls-2" cx="204" cy="74" r="13"/><circle class="cls-2" cx="1388" cy="658" r="13"/><path class="cls-2" d="M807.31 801h-2.1"/><path class="cls-2" d="M972.05 843h-4.89m5.48 0h-.59m-.33-147.89L922 645.39V449.5a7.5 7.5 0 0 0-15 0v62.71l-59.71-59.59a7.65 7.65 0 0 0 .24-1.92L847 286.48a7.5 7.5 0 0 0-7.5-7.48 7.5 7.5 0 0 0-7.48 7.52l.11 32.8-48.19-48.1a8.47 8.47 0 0 0 .08-1.13v-67.6a8.26 8.26 0 0 0-2.29-5.59l-40.92-40.72a7.5 7.5 0 1 0-10.58 10.64L769 205.41v50.92l-34.2-34.14a7.5 7.5 0 0 0-10.6 10.62l108 107.77.32 97.26-21.72-21.65a7.5 7.5 0 1 0-10.6 10.62L907 533.41v97l-19.7-19.71a7.5 7.5 0 0 0-10.6 10.6l82.3 82.31V827.4l-69-69v-44.53a7.5 7.5 0 1 0-15 0v29.52l-57-57v-48l55.79-55.6a7.5 7.5 0 0 0-10.58-10.62l-45.21 45v-.73a7.5 7.5 0 0 0-15 0v54.89L745.55 614c0-.1-.07-.19-.11-.29l77.36-77.41a7.5 7.5 0 0 0-10.6-10.6L798.85 539l-.15-.15-18.93-18.72a7.5 7.5 0 0 0-10.54 10.66l18.92 18.72.1.1L744 593.89v-181.8l48.83-49.31a7.5 7.5 0 0 0-10.66-10.56L744 390.77V352.5a7.48 7.48 0 0 0-2.33-5.43 7.11 7.11 0 0 0-1-1.17L702 307.38V255.5a8.05 8.05 0 0 0-.08-1.11 7.5 7.5 0 0 0-2.21-5.49L660 209.39V162.5a7.5 7.5 0 0 0-15 0v49.59a7.47 7.47 0 0 0 1.91 5 7.62 7.62 0 0 0 1.3 1.73L687 257.41v50.68a7 7 0 0 0 .1 1.21 7.48 7.48 0 0 0 2.11 6.52L729 355.41v161l-48.28-48.28a7.47 7.47 0 0 0 .28-2V364.5a7.5 7.5 0 0 0-15 0v43.71l-84-83.86v-85.82l28.8-28.72a7.5 7.5 0 1 0-10.6-10.62l-3.6 3.6-43.47-43.37 9.66-9.6a7.5 7.5 0 0 0 2.21-5.51v-15.92a6.47 6.47 0 0 0 .9-.76l42.9-42.82a7.5 7.5 0 1 0-10.6-10.62L565 107.33V91.5a8.05 8.05 0 0 0-.08-1.11 7.5 7.5 0 0 0-2.21-5.49l-40.92-40.72a7.5 7.5 0 1 0-10.58 10.64L550 93.41v48l-7.49 7.45-34.71-34.67a7.5 7.5 0 0 0-10.6 10.62l88.8 88.57L569.3 230a7.51 7.51 0 0 0-2.2 5.25 8.41 8.41 0 0 0-.1 1.24v21.75l-28.21-28.07a7.5 7.5 0 1 0-10.58 10.64l38.79 38.6v30l-10.2-10.19a7.5 7.5 0 1 0-10.6 10.62l34.64 34.57-50.35.31-38.7-38.51a7.5 7.5 0 0 0-10.58 10.64l28.14 28-27.56.17-46.79-46.7v-67.49a6.26 6.26 0 0 0 .67-.6L479.94 186a7.5 7.5 0 0 0-10.61-10.61L435 209.69V197.5a7.5 7.5 0 0 0-15 0v27.72l-50.22-50.11a7.62 7.62 0 0 0 .09-1.18V125.5a7.5 7.5 0 0 0-15 0v34.74l-9.07-9.05a7.5 7.5 0 1 0-10.6 10.62l13.71 13.68-44.12.49-39-38.8a7.5 7.5 0 0 0-10.58 10.64l40.92 40.71a7.51 7.51 0 0 0 5.32 2.19 7.25 7.25 0 0 0 2.13.28l60.2-.68L420 246.41v36.94l-15.2-15.16a7.5 7.5 0 1 0-10.6 10.62l3.43 3.42-25.18-.09-42.78-42.78a7.5 7.5 0 0 0-10.6 10.64l32.09 32.09-18.63-.09a7.5 7.5 0 0 0 0 15l80.26.3 59.51 59.35a7.61 7.61 0 0 0 6.3 3.36l48.52-.29a7.51 7.51 0 0 0 .82 0l67.89-.41 68.35 68.24a7.44 7.44 0 0 0 1.88 1.36v24.49l-10.7-10.7a7.5 7.5 0 1 0-10.6 10.6L729 537.61v71.28l-.11.11H707.6l-30.8-30.8a7.5 7.5 0 0 0-10.6 10.6l20.19 20.2H626.6l-58-58 27.19-27.2a7.5 7.5 0 0 0-10.6-10.6L558 540.39l-14.7-14.69a7.5 7.5 0 0 0-10.6 10.6l84.5 84.5a6.15 6.15 0 0 0 .53.49 7.49 7.49 0 0 0 5.77 2.71h110.89l94.06 94.06h-31.79L766.8 688.2a7.5 7.5 0 0 0-10.6 10.6l19.24 19.2h-36.27a7.5 7.5 0 0 0-1.34 0H700v-55.5a7.5 7.5 0 0 0-15 0v13.75l-28.21-28.07a7.5 7.5 0 0 0-10.58 10.64l38.79 38.6V718h-36.39l-17.71-17.7-.2-.2-64.4-64.4a7.5 7.5 0 0 0-10.6 10.6l51.69 51.7H539.6l-39.73-39.73-.14-.14-5.73-5.73V535.5a7.5 7.5 0 0 0-15 0v35.73L419.58 511l51.22-51.2a7.5 7.5 0 0 0-10.6-10.6L417 492.39V408.5a7.5 7.5 0 0 0-15 0v22.73l-35-34.88V337.5a7.5 7.5 0 0 0-15 0v43.89l-.2-.2a7.5 7.5 0 1 0-10.59 10.62l11.5 11.47a7.55 7.55 0 0 0 3.63 3.62L402 452.41v58.6a7.49 7.49 0 0 0 2.14 5.76l13.3 13.47-41.31 42a7.5 7.5 0 0 0 10.7 10.52L428 540.92l51 51.66v44.82l-21.7-21.7a7.5 7.5 0 0 0-10.6 10.6l29.69 29.7H340.6L291 606.39V507.5a7.5 7.5 0 0 0-15 0v4.73l-35.54-35.44a7.07 7.07 0 0 0 .07-1.13l-.45-57.32a8.13 8.13 0 0 0 .84-.73l40.72-40.92A7.5 7.5 0 1 0 271 366.11l-34.45 34.63-30-29.92v-.12l-.16-57.7a7.5 7.5 0 0 0-7.5-7.48 7.49 7.49 0 0 0-7.48 7.51l.11 42.82-20.7-20.64a7.5 7.5 0 1 0-10.59 10.62L225 410.42l.41 51.37-7.62-7.6a7.5 7.5 0 1 0-10.6 10.62l68.8 68.6v58L234.8 550.2a7.5 7.5 0 0 0-10.6 10.6l108 108a7.44 7.44 0 0 0 5.3 2.2h60.89l-20.19 20.2a7.5 7.5 0 0 0 10.6 10.6l30.81-30.8h71.78l39.81 39.8a7.46 7.46 0 0 0 5.8 2.2h85.38l17.81 17.8a7.41 7.41 0 0 0 5.42 2.2h74.75l-19.16 19.19a7.5 7.5 0 0 0 10.61 10.6L741.58 733h101.88L953.2 842.8a2 2 0 0 0 .21.2h12.42a4.33 4.33 0 0 1 .72 0H974V700.5a7.5 7.5 0 0 0-2.28-5.39z" transform="translate(-158 -42)"/><path d="M1773.79 350.81a7.5 7.5 0 1 0-10.58-10.62l-20.71 20.64.1-37.3a13 13 0 1 0-15 .15l-.13 52v.12l-30 29.92-34.47-34.61a7.5 7.5 0 0 0-10.64 10.58l40.72 40.92a8.13 8.13 0 0 0 .84.73l-.45 57.32a7.07 7.07 0 0 0 .07 1.13L1658 517.23v-4.73a7.5 7.5 0 0 0-15 0v98.89L1593.4 661h-135.79l29.69-29.7a7.5 7.5 0 0 0-10.6-10.6l-21.7 21.7v-41.49a14.49 14.49 0 0 0 9-12.39l42-42.6 41.15 41.84a7.5 7.5 0 0 0 10.7-10.52l-41.31-42 13.3-13.47A7.49 7.49 0 0 0 1532 516v-58.59l45.66-45.51a7.55 7.55 0 0 0 3.63-3.62l11.5-11.47a7.5 7.5 0 1 0-10.58-10.62l-.21.2V342.5a7.5 7.5 0 0 0-15 0v58.85l-35 34.88V413.5a7.5 7.5 0 0 0-15 0v83.89l-35.18-35.18a13 13 0 1 0-17 4.24l49.6 49.55-58 58.74a12.62 12.62 0 0 0-1.44-.68V540.5a7.5 7.5 0 0 0-15 0v36.06a14.47 14.47 0 0 0 0 21.88v59l-5.73 5.73-.14.14L1394.4 703h-67.79l47.07-47.07a11.43 11.43 0 0 0 1.32.07 13 13 0 1 0-13-13 13.23 13.23 0 0 0 .37 3l-59.07 59.1-.2.2-17.71 17.7H1249v-20.58l38.79-38.6a7.5 7.5 0 0 0-10.58-10.64L1249 681.25V667.5a7.5 7.5 0 0 0-15 0V723h-37.83a7.5 7.5 0 0 0-1.34 0h-36.27l19.24-19.24a7.5 7.5 0 0 0-10.6-10.6l-29.86 29.85h-31.79l94.06-94.01h110.89a7.49 7.49 0 0 0 5.77-2.71 6.15 6.15 0 0 0 .53-.49l84.5-84.5a7.5 7.5 0 0 0-10.6-10.6l-14.7 14.69-27.2-27.19a7.5 7.5 0 0 0-10.6 10.6l27.19 27.2-58 58h-59.79l20.19-20.2a7.5 7.5 0 0 0-10.6-10.6L1226.4 614h-21.29l-.11-.11v-71.28l84.3-84.31a7.5 7.5 0 0 0-10.6-10.6l-10.7 10.7v-24.51a7.44 7.44 0 0 0 1.88-1.36l68.35-68.24 67.9.41a7.3 7.3 0 0 0 .81 0l48.52.29a7.61 7.61 0 0 0 6.3-3.36l59.51-59.35 80.26-.3a7.5 7.5 0 0 0 0-15l-18.63.07 31-31 42.39-.31a7.48 7.48 0 0 0 5.55-2.54 8 8 0 0 0 .7-.61l31.37-31.85a7.5 7.5 0 1 0-10.68-10.52l-30.1 30.54-41.65.31a16 16 0 0 0-7.08 3.27l-42.78 42.78-25.18.09 3.43-3.42a7.5 7.5 0 0 0-10.6-10.62L1514 288.35v-36.94l56.22-56.09 60.2.68a7.25 7.25 0 0 0 2.13-.28 7.51 7.51 0 0 0 5.32-2.19l40.92-40.71a7.5 7.5 0 1 0-10.58-10.64l-39 38.8-44.12-.49 13.71-13.68a7.5 7.5 0 1 0-10.6-10.62l-9.07 9.05V130.5a7.5 7.5 0 0 0-15 0v48.43a7.62 7.62 0 0 0 .09 1.18L1514 230.22V202.5a7.5 7.5 0 0 0-15 0v12.19l-34.33-34.33a7.5 7.5 0 0 0-10.61 10.64l44.27 44.26a6.26 6.26 0 0 0 .67.6v67.49L1452.21 350l-27.56-.17 24.14-24a13.35 13.35 0 0 0 2.21.2 13.1 13.1 0 1 0-12.8-10.82l-34.69 34.51-50.35-.31 34.64-34.57a7.5 7.5 0 0 0-10.6-10.62l-10.2 10.16v-30l38.79-38.59a7.5 7.5 0 1 0-10.58-10.64l-28.21 28.1V241.5a8.41 8.41 0 0 0-.1-1.24 7.51 7.51 0 0 0-2.2-5.25l-16.7-16.63 88.78-88.57a7.5 7.5 0 0 0-10.6-10.62l-34.71 34.64-7.49-7.45v-48l38.79-38.59a7.5 7.5 0 1 0-10.58-10.64l-40.9 40.75a7.5 7.5 0 0 0-2.21 5.49 8.05 8.05 0 0 0-.08 1.11v15.83l-33.2-33.14a7.5 7.5 0 1 0-10.6 10.62l42.9 42.82a6.47 6.47 0 0 0 .9.76v15.92a7.5 7.5 0 0 0 2.21 5.51l9.66 9.6-43.47 43.37-3.6-3.6a7.5 7.5 0 0 0-10.6 10.62l28.8 28.72v85.82l-84 83.86V369.5a7.5 7.5 0 0 0-15 0v101.6a7.47 7.47 0 0 0 .28 2L1205 521.4v-161l32.78-32.61a13.47 13.47 0 0 0 2.22.2 13 13 0 0 0 7-23.94v-41.64l38.79-38.59a7.62 7.62 0 0 0 1.3-1.73 7.47 7.47 0 0 0 1.91-5V167.5a7.5 7.5 0 0 0-15 0v46.89l-39.71 39.51a7.5 7.5 0 0 0-2.21 5.49 8.05 8.05 0 0 0-.08 1.11v44.27a13 13 0 0 0-5 10.23 13.88 13.88 0 0 0 .19 2.16l-33.9 33.74a7.11 7.11 0 0 0-1 1.17 7.48 7.48 0 0 0-2.33 5.43v38.27l-38.17-38.55a7.5 7.5 0 1 0-10.66 10.56l48.87 49.31v181.8l-44.25-44.24.1-.1 18.92-18.72a7.5 7.5 0 1 0-10.54-10.66l-18.93 18.72-.15.15-13.35-13.34a7.5 7.5 0 0 0-10.6 10.6l77.36 77.36c0 .1-.08.19-.11.29L1131 676.39V621.5a7.5 7.5 0 0 0-15 0v.73l-45.21-45a7.5 7.5 0 1 0-10.58 10.62l55.79 55.6v48l-57 57v-25.22a13 13 0 1 0-15 .71v39.45l-63 63V705.5a7.49 7.49 0 0 0-.42-2.47l76.72-76.73a7.5 7.5 0 0 0-10.6-10.6l-19.7 19.69v-96.45a13 13 0 0 0 4.63-5.15l102.17-102a7.5 7.5 0 0 0-10.6-10.62l-21.69 21.65.32-97.26 108-107.77a7.5 7.5 0 1 0-10.6-10.62L1165 261.33v-6.17a7.56 7.56 0 0 0 0-4.32v-40.43l34.66-34.48a11.9 11.9 0 0 0 1.34.07 13 13 0 1 0-12.64-10l-36.07 35.89a8.26 8.26 0 0 0-2.29 5.59v27.28l-53.9-53.11a7.5 7.5 0 1 0-10.53 10.68l64.43 63.5v19.26a8.47 8.47 0 0 0 .08 1.13l-48.19 48.1.11-32.8a7.5 7.5 0 0 0-7.48-7.52 7.5 7.5 0 0 0-7.5 7.48l-.23 72.22-37.31-36.76-.29-38.1a13 13 0 1 0-15-.48v6.82l-19.07-18.79a7.5 7.5 0 0 0-10.52 10.69l29.75 29.31.1 13.44v.78a7.45 7.45 0 0 0 2.22 4.85l50 49.23-.23 71a7.65 7.65 0 0 0 .24 1.92l-59.61 59.5-.1-.06V454.5a7.5 7.5 0 0 0-15 0v63.27a13 13 0 0 0 0 20.46v112.16L970.5 691.9 929 650.39v-51.33l30.84-31.3a7.5 7.5 0 1 0-10.68-10.52L929 577.69V464.53a13 13 0 0 0 7-11.53 13.14 13.14 0 0 0-.15-1.89l43.21-43.85a7.5 7.5 0 0 0-10.69-10.52l-16 16.25-.52-70.38a7.5 7.5 0 0 0-7.5-7.44h-.05a7.5 7.5 0 0 0-7.45 7.55l.63 85.38-12 12.15A12.85 12.85 0 0 0 923 440a13 13 0 0 0-9 22.37v54.84l-59.71-59.59a7.65 7.65 0 0 0 .24-1.92l-.07-22.1 30.38-30.84a7.5 7.5 0 1 0-10.68-10.52l-19.77 20.06-.1-32.51 72.25-72.25a7.66 7.66 0 0 0 1.7-2.64 7.5 7.5 0 0 0 1.24-4.18l-.31-41.84 29.67-30.12a7.5 7.5 0 0 0-10.68-10.52l-10.8 11-27-26.58 26.46-26.86a7.5 7.5 0 0 0-10.68-10.52l-26.44 26.81-13.44-13.24a7.5 7.5 0 0 0-10.52 10.69l51.09 50.34-10.05 10.2a7.57 7.57 0 0 0-1.15 1.53 7.38 7.38 0 0 0-1.48 4.52l.31 42.27-60.24 60.24-.22-67.16a7.5 7.5 0 0 0-7.5-7.48 7.5 7.5 0 0 0-7.48 7.52l.11 32.8-48.19-48.1a8.47 8.47 0 0 0 .08-1.13v-67.6a8.26 8.26 0 0 0-2.29-5.59l-36.93-36.72A13 13 0 1 0 739 176a13.35 13.35 0 0 0 2.21-.2L776 210.41v50.92l-34.2-34.14a7.5 7.5 0 0 0-10.6 10.62l108 107.77.32 97.26-21.72-21.65a7.5 7.5 0 1 0-10.6 10.62L914 538.41v97l-19.7-19.71a7.5 7.5 0 0 0-10.6 10.6l76.72 76.7a7.49 7.49 0 0 0-.42 2.47V826.4l-63-63v-44.53a7.5 7.5 0 1 0-15 0v29.52l-57-57v-48l55.79-55.6a7.5 7.5 0 0 0-10.58-10.62l-45.21 45v-.73a7.5 7.5 0 0 0-15 0v54.89l-51.6-51.6a16.42 16.42 0 0 0-.24-11.85l71.64-71.58a7.5 7.5 0 0 0-10.6-10.6L805.85 544l-.15-.15-18.93-18.72a7.5 7.5 0 0 0-10.54 10.66l18.92 18.72.1.1L751 598.89v-181.8l48.83-49.31a7.5 7.5 0 0 0-10.66-10.56L751 395.77V357.5a7.48 7.48 0 0 0-2.33-5.43 7.11 7.11 0 0 0-1-1.17L709 312.38V260.5a8.05 8.05 0 0 0-.08-1.11 7.5 7.5 0 0 0-2.21-5.49L667 214.39V167.5a7.5 7.5 0 0 0-15 0v49.59a7.47 7.47 0 0 0 1.91 5 7.62 7.62 0 0 0 1.3 1.73L694 262.41v50.68a7 7 0 0 0 .1 1.21 7.48 7.48 0 0 0 2.11 6.52L736 360.41v161l-48.28-48.28a7.47 7.47 0 0 0 .28-2V369.5a7.5 7.5 0 0 0-15 0v43.71l-60.13-60L644.61 321a13 13 0 1 0-12.77-8.41l-29.58 30L589 329.35v-85.82l28.8-28.72a7.5 7.5 0 1 0-10.6-10.62l-3.6 3.6-43.47-43.37 9.66-9.6a7.5 7.5 0 0 0 2.21-5.51v-15.92a6.47 6.47 0 0 0 .9-.76l42.9-42.82a7.5 7.5 0 1 0-10.6-10.62L572 112.33V96.5a8.05 8.05 0 0 0-.08-1.11 7.5 7.5 0 0 0-2.21-5.49l-40.92-40.72a7.5 7.5 0 1 0-10.58 10.64L557 98.41v48l-7.49 7.45-34.71-34.67a7.5 7.5 0 0 0-10.6 10.62l88.8 88.57L576.3 235a7.51 7.51 0 0 0-2.2 5.25 8.41 8.41 0 0 0-.1 1.24v21.75l-28.21-28.07a7.5 7.5 0 1 0-10.58 10.64l38.79 38.6v30l-10.2-10.19a7.5 7.5 0 1 0-10.6 10.62l34.64 34.57-50.35.31-38.7-38.51a7.5 7.5 0 0 0-10.58 10.64l28.14 28-27.56.17-46.79-46.7v-67.49a6.26 6.26 0 0 0 .67-.6L486.94 191a7.5 7.5 0 0 0-10.61-10.61L442 214.69V202.5a7.5 7.5 0 0 0-15 0v27.72l-50.22-50.11a7.62 7.62 0 0 0 .09-1.18v-15.78a7.7 7.7 0 0 0 .6-.54L430 109.26a7.5 7.5 0 0 0-10.69-10.52l-42.47 43.1v-10.51a13 13 0 1 0-15 .53v33.38l-9.07-9.05a7.5 7.5 0 1 0-10.6 10.62l13.71 13.68-44.12.49-39-38.8a7.5 7.5 0 1 0-10.58 10.64l40.92 40.71a7.51 7.51 0 0 0 5.32 2.19 7.25 7.25 0 0 0 2.13.28l60.2-.68L427 251.41v36.94l-15.2-15.16a7.5 7.5 0 1 0-10.6 10.62l3.43 3.42-25.18-.09-42.78-42.78a7.5 7.5 0 0 0-10.6 10.64l32.09 32.09-18.63-.09a7.5 7.5 0 0 0 0 15l80.26.3 59.51 59.35a7.61 7.61 0 0 0 6.3 3.36l48.52-.29a7.51 7.51 0 0 0 .82 0l67.89-.41 68.35 68.24a7.44 7.44 0 0 0 1.88 1.36v24.49l-10.7-10.7a7.5 7.5 0 1 0-10.6 10.6L736 542.61v61.77a16.2 16.2 0 0 0-8.54 9.62H714.6l-30.8-30.8a7.5 7.5 0 0 0-10.6 10.6l20.19 20.2H633.6l-58-58 27.19-27.2a7.3 7.3 0 0 0 1.21-1.58 7.49 7.49 0 0 0 1.47-4.5l-.3-40.88a13 13 0 1 0-15-.48l.29 38.58L565 545.39l-14.7-14.69a7.5 7.5 0 0 0-10.6 10.6l84.5 84.5a6.15 6.15 0 0 0 .53.49 7.49 7.49 0 0 0 5.77 2.71h99.38a17 17 0 0 0 1.52 1.79 16.39 16.39 0 0 0 16 4.2l88.07 88.07h-31.81L773.8 693.2a7.5 7.5 0 0 0-10.6 10.6l19.24 19.2h-36.27a7.5 7.5 0 0 0-1.34 0H707v-55.5a7.5 7.5 0 0 0-15 0v13.75l-28.21-28.07a7.5 7.5 0 0 0-10.58 10.64l38.79 38.6V723h-28.76a13 13 0 0 0-10.24-5 13.33 13.33 0 0 0-2.2.2l-12.9-12.9-.2-.2-64.4-64.4a7.5 7.5 0 0 0-10.6 10.6l51.69 51.7H546.6l-39.73-39.73-.14-.14-5.73-5.73V540.5a7.5 7.5 0 0 0-15 0v35.73L426.58 516l51.22-51.2a7.5 7.5 0 0 0-10.6-10.6L424 497.39V413.5a7.5 7.5 0 0 0-15 0v22.73L378.64 406a12.64 12.64 0 0 0 .36-3 13 13 0 0 0-5-10.23V342.5a7.5 7.5 0 0 0-15 0v43.89l-.2-.2a7.5 7.5 0 1 0-10.59 10.62l4.86 4.85A11.9 11.9 0 0 0 353 403a13 13 0 0 0 13 13 12.48 12.48 0 0 0 1.38-.08L409 457.41v58.6a7.49 7.49 0 0 0 2.14 5.76l13.3 13.47-41.31 42a7.5 7.5 0 0 0 10.7 10.52L435 545.92l51 51.66v44.82l-21.7-21.7a7.5 7.5 0 0 0-10.6 10.6l29.69 29.7H347.6l-21.45-21.46a7.51 7.51 0 0 0-4.27-4.27L298 611.39V512.5a7.5 7.5 0 0 0-15 0v4.73l-35.54-35.44a7.07 7.07 0 0 0 .07-1.13l-.45-57.32a8.13 8.13 0 0 0 .84-.73l40.72-40.92A7.5 7.5 0 1 0 278 371.11l-34.45 34.63-30-29.92v-12.25l62-62a7.5 7.5 0 0 0-10.61-10.61l-51.48 51.48v-18.5a13 13 0 1 0-15 1.28l.09 35.64-20.7-20.64a7.5 7.5 0 1 0-10.59 10.62L232 415.42l.41 51.37-7.62-7.6a7.5 7.5 0 1 0-10.6 10.62l68.8 68.6v58l-39.2-39.2a13.09 13.09 0 1 0-10.61 10.61l67.1 67.1-51.57.38a7.5 7.5 0 0 0 .05 15h.06l66.35-.49 24 24a7.44 7.44 0 0 0 5.3 2.2h60.89L385.2 696.2a7.5 7.5 0 0 0 10.6 10.6l30.81-30.8h71.78l39.81 39.8a7.46 7.46 0 0 0 5.8 2.2h85.38l10.81 10.81A12.92 12.92 0 0 0 653 744a13 13 0 0 0 10.94-6h63.43l-19.17 19.19a7.5 7.5 0 0 0 10.61 10.6L748.58 738h101.88L960 847.62v.4h12.7a4.61 4.61 0 0 1 .91 0H981v-.39l109.54-109.55h101.88l29.77 29.76a7.5 7.5 0 0 0 10.61-10.6L1213.63 738h74.75a7.41 7.41 0 0 0 5.42-2.2l17.81-17.8H1397a7.45 7.45 0 0 0 5.8-2.18l39.81-39.8h71.78l26 26a13.23 13.23 0 0 0-.37 3 13 13 0 1 0 13-13 11.73 11.73 0 0 0-1.33.07L1535.61 676h60.89a7.44 7.44 0 0 0 5.3-2.2l108-108a7.5 7.5 0 0 0-10.6-10.6l-41.2 41.19v-58l68.8-68.6a7.5 7.5 0 0 0-10.6-10.62l-7.62 7.6.41-51.37z" transform="translate(-158 -42)" opacity=".35" fill="#64b564"/></g></svg>