<svg xmlns="http://www.w3.org/2000/svg" viewBox="0 0 98.3 108"><defs><style>.cls-1{fill:#e9b416;}.cls-2{fill:#f6be16;}.cls-3{fill:#334b5e;}.cls-4{fill:#fff;}.cls-5{fill:#e6e9ed;}</style></defs><title>Asset 28</title><g id="Layer_2" data-name="Layer 2"><g id="Layer_1-2" data-name="Layer 1"><path class="cls-1" d="M96.71,78.9,55,107.37a3.67,3.67,0,0,1-3.64.27L5.85,85.75a3.67,3.67,0,0,1-2-3L3,71.49,0,32.38a3.64,3.64,0,0,1,1.55-3.27L43.37.59A3.62,3.62,0,0,1,46.93.36L83.78,18.08l8.66,4.17a3.65,3.65,0,0,1,2.06,3l3.79,50.36A3.62,3.62,0,0,1,96.71,78.9Z"/><path class="cls-2" d="M83.78,18.08A68.42,68.42,0,0,1,8.08,72.36c-1.73-.22-3.44-.52-5.13-.87L0,32.38a3.64,3.64,0,0,1,1.55-3.27L43.37.59A3.62,3.62,0,0,1,46.93.36Z"/><path class="cls-3" d="M68.47,33.06,47.16,24.64l-2.28,5.8-5.79-2.23L28.43,55.31a2.47,2.47,0,0,0,1.39,3.18l24.83,9.76a2.46,2.46,0,0,0,3.17-1.39l12-30.62A2.43,2.43,0,0,0,68.47,33.06Z"/><path class="cls-4" d="M62.48,24.64H39.58v3.77a2.48,2.48,0,0,1-2.48,2.47H33.34V60a2.49,2.49,0,0,0,2.48,2.48H62.53A2.48,2.48,0,0,0,65,60V27.12A2.56,2.56,0,0,0,62.48,24.64Z"/><path class="cls-5" d="M39.58,24.64l-6.24,6.24H37.1a2.48,2.48,0,0,0,2.48-2.47Z"/><rect class="cls-5" x="37.15" y="34.85" width="23.93" height="1.93"/><rect class="cls-5" x="37.15" y="39.61" width="23.93" height="1.93"/><rect class="cls-5" x="37.15" y="44.41" width="23.93" height="1.93"/><rect class="cls-5" x="37.15" y="49.22" width="23.93" height="1.93"/><rect class="cls-5" x="37.15" y="54.03" width="15.76" height="1.93"/></g></g></svg>